<?xml version="1.0" standalone="no"?>
<!DOCTYPE svg PUBLIC "-//W3C//DTD SVG 20010904//EN"
 "http://www.w3.org/TR/2001/REC-SVG-20010904/DTD/svg10.dtd">
<svg version="1.0" xmlns="http://www.w3.org/2000/svg"
 width="184.000000pt" height="58.000000pt" viewBox="0 0 184.000000 58.000000"
 preserveAspectRatio="xMidYMid meet">

<g transform="translate(0.000000,58.000000) scale(0.100000,-0.100000)"
fill="#000000" stroke="none">
<path d="M175 555 c-33 -9 -63 -19 -68 -24 -4 -4 25 1 65 11 71 19 185 20 258
3 l25 -6 -25 12 c-41 18 -188 20 -255 4z"/>
<path d="M470 530 c8 -5 20 -10 25 -10 6 0 3 5 -5 10 -8 5 -19 10 -25 10 -5 0
-3 -5 5 -10z"/>
<path d="M275 513 c-11 -3 -30 -14 -42 -26 -35 -31 -30 -75 14 -132 35 -44 38
-54 44 -134 l6 -86 1 67 c2 77 14 113 47 148 31 33 44 69 38 104 -8 40 -62 70
-108 59z"/>
<path d="M526 490 c22 -45 28 -52 19 -20 -4 14 -14 32 -22 40 -10 11 -9 5 3
-20z"/>
<path d="M743 457 c-25 -50 -29 -66 -18 -70 10 -5 5 -37 -26 -159 -21 -84 -39
-156 -39 -160 0 -12 220 -9 263 3 22 6 55 25 74 43 31 28 37 40 41 88 4 47 1
59 -17 77 l-22 22 26 20 c57 46 71 119 31 166 -24 28 -26 28 -153 31 l-128 3
-32 -64z m204 -74 c11 -29 -64 -72 -80 -45 -3 4 -3 19 0 35 5 23 10 27 39 27
23 0 37 -6 41 -17z m-29 -156 c6 -29 -17 -47 -59 -47 -38 0 -39 1 -33 28 10
41 13 43 52 40 26 -2 38 -8 40 -21z"/>
<path d="M1345 510 c-160 -15 -248 -96 -280 -257 -15 -77 43 -170 120 -192 47
-13 134 -14 153 -2 7 4 26 36 43 70 24 52 26 62 12 56 -10 -4 -42 -10 -70 -13
-66 -6 -98 13 -112 65 -13 45 8 95 52 127 35 26 113 27 150 3 28 -18 32 -15
75 69 l21 41 -45 21 c-24 12 -46 21 -47 21 -1 -1 -33 -5 -72 -9z"/>
<path d="M1542 455 c-24 -50 -28 -65 -17 -65 8 0 15 -2 15 -5 0 -3 -36 -77
-80 -165 l-80 -160 78 0 79 0 16 40 c15 39 16 40 66 40 l51 0 0 -40 0 -40 76
0 76 0 -6 27 c-2 16 -8 111 -11 213 -3 102 -9 193 -11 203 -5 15 -19 17 -113
17 l-107 0 -32 -65z m128 -150 c0 -52 -1 -55 -26 -55 -21 0 -24 3 -18 22 12
38 34 88 39 88 3 0 5 -25 5 -55z"/>
<path d="M35 433 c-4 -10 -9 -63 -10 -118 l-3 -100 7 95 c4 52 11 105 15 118
9 26 1 30 -9 5z"/>
<path d="M562 390 c0 -14 2 -19 5 -12 2 6 2 18 0 25 -3 6 -5 1 -5 -13z"/>
<path d="M136 356 c-48 -47 -28 -94 50 -115 43 -11 79 -43 87 -76 3 -11 5 5 6
35 2 101 -29 160 -91 175 -21 5 -33 1 -52 -19z"/>
<path d="M384 370 c-40 -16 -65 -73 -70 -157 -4 -72 -4 -75 8 -43 13 35 37 52
121 84 32 13 37 19 37 48 0 39 -7 51 -37 67 -25 13 -30 13 -59 1z"/>
<path d="M573 285 c0 -44 2 -61 4 -37 2 23 2 59 0 80 -2 20 -4 1 -4 -43z"/>
<path d="M106 235 c-2 -7 1 -23 8 -36 10 -20 20 -24 66 -27 37 -2 59 -8 68
-19 11 -15 12 -15 12 4 0 29 -33 55 -95 74 -41 13 -55 14 -59 4z"/>
<path d="M427 231 c-54 -18 -97 -54 -97 -80 1 -14 2 -14 11 2 8 13 23 17 67
17 62 0 82 11 82 46 0 32 -8 34 -63 15z"/>
<path d="M32 190 c0 -14 2 -19 5 -12 2 6 2 18 0 25 -3 6 -5 1 -5 -13z"/>
<path d="M561 174 c0 -11 3 -14 6 -6 3 7 2 16 -1 19 -3 4 -6 -2 -5 -13z"/>
<path d="M41 153 c-2 -29 32 -91 55 -102 38 -17 42 -13 8 8 -21 13 -37 34 -47
63 -9 24 -16 37 -16 31z"/>
<path d="M551 143 c-1 -6 -4 -20 -7 -30 -5 -17 -5 -17 6 0 6 10 9 23 6 30 -3
9 -5 9 -5 0z"/>
<path d="M420 92 c0 -10 7 -19 14 -19 11 0 13 5 5 19 -5 10 -12 18 -14 18 -3
0 -5 -8 -5 -18z"/>
<path d="M191 84 c0 -11 3 -14 6 -6 3 7 2 16 -1 19 -3 4 -6 -2 -5 -13z"/>
<path d="M211 84 c0 -11 3 -14 6 -6 3 7 2 16 -1 19 -3 4 -6 -2 -5 -13z"/>
<path d="M382 80 c0 -14 2 -19 5 -12 2 6 2 18 0 25 -3 6 -5 1 -5 -13z"/>
<path d="M281 74 c0 -11 3 -14 6 -6 3 7 2 16 -1 19 -3 4 -6 -2 -5 -13z"/>
<path d="M340 77 c0 -19 16 -31 24 -18 3 5 -1 14 -9 21 -12 10 -15 10 -15 -3z"/>
<path d="M530 82 c0 -6 -12 -18 -27 -26 -16 -8 -23 -15 -17 -16 18 0 60 37 52
46 -5 4 -8 2 -8 -4z"/>
<path d="M237 59 c7 -7 15 -10 18 -7 3 3 -2 9 -12 12 -14 6 -15 5 -6 -5z"/>
<path d="M178 23 c7 -3 16 -2 19 1 4 3 -2 6 -13 5 -11 0 -14 -3 -6 -6z"/>
<path d="M418 23 c7 -3 16 -2 19 1 4 3 -2 6 -13 5 -11 0 -14 -3 -6 -6z"/>
<path d="M218 13 c6 -2 18 -2 25 0 6 3 1 5 -13 5 -14 0 -19 -2 -12 -5z"/>
<path d="M368 13 c6 -2 18 -2 25 0 6 3 1 5 -13 5 -14 0 -19 -2 -12 -5z"/>
</g>
</svg>
