<svg width="186" height="186" viewBox="0 0 186 186" fill="none" xmlns="http://www.w3.org/2000/svg">
<circle cx="93" cy="93" r="93" fill="white"/>
<circle cx="93" cy="93" r="73.25" stroke="#42B553" stroke-width="1.5" stroke-dasharray="6 6"/>
<g clip-path="url(#clip0)">
<path d="M122.784 110.091L119.299 99.9495C120.979 96.5156 121.867 92.6967 121.873 88.8542C121.883 82.173 119.298 75.8558 114.594 71.0663C109.889 66.2759 103.619 63.5793 96.9393 63.4735C90.013 63.364 83.5025 65.9987 78.6079 70.8931C73.8883 75.6126 71.2705 81.8345 71.1877 88.4832C66.536 91.9855 63.7904 97.4459 63.7995 103.278C63.8038 106.007 64.4181 108.72 65.5821 111.174L63.1818 118.159C62.7692 119.36 63.0706 120.664 63.9685 121.562C64.6003 122.194 65.4334 122.53 66.2902 122.53C66.6506 122.53 67.0153 122.471 67.371 122.348L74.3564 119.948C76.8098 121.112 79.5228 121.726 82.2521 121.731C82.2619 121.731 82.2713 121.731 82.2811 121.731C88.2003 121.73 93.7023 118.914 97.1918 114.148C100.823 114.053 104.416 113.174 107.664 111.585L117.806 115.07C118.228 115.215 118.662 115.286 119.09 115.286C120.108 115.286 121.098 114.886 121.849 114.135C122.916 113.068 123.274 111.518 122.784 110.091ZM82.2809 118.159C82.2733 118.159 82.2652 118.159 82.2576 118.159C79.8419 118.156 77.4429 117.56 75.3205 116.437C74.8841 116.206 74.3718 116.166 73.9052 116.327L66.7423 118.788L69.2036 111.625C69.3639 111.159 69.3241 110.646 69.0932 110.21C67.9703 108.087 67.3748 105.689 67.371 103.273C67.365 99.387 68.8766 95.7039 71.52 92.946C72.3835 98.2096 74.8921 103.06 78.7806 106.879C82.6404 110.671 87.4923 113.084 92.7273 113.873C89.963 116.598 86.2369 118.159 82.2809 118.159ZM119.324 111.609C119.222 111.711 119.102 111.739 118.966 111.692L108.109 107.961C107.92 107.896 107.724 107.864 107.529 107.864C107.241 107.864 106.954 107.934 106.694 108.072C103.594 109.711 100.091 110.581 96.5632 110.587C96.5516 110.587 96.541 110.587 96.5294 110.587C84.7095 110.587 74.9463 100.985 74.759 89.1678C74.6646 83.2165 76.9285 77.6232 81.1333 73.4184C85.3381 69.2136 90.9323 66.9506 96.8829 67.0443C108.711 67.2319 118.32 77.0132 118.301 88.8486C118.296 92.3762 117.426 95.8793 115.786 98.979C115.555 99.4153 115.516 99.9277 115.676 100.394L119.407 111.252C119.453 111.388 119.425 111.508 119.324 111.609Z" fill="#444444"/>
<path d="M107.167 79.3491H85.8906C84.9043 79.3491 84.1049 80.1487 84.1049 81.1348C84.1049 82.1211 84.9044 82.9205 85.8906 82.9205H107.167C108.153 82.9205 108.953 82.121 108.953 81.1348C108.953 80.1487 108.153 79.3491 107.167 79.3491Z" fill="#444444"/>
<path d="M107.167 86.6934H85.8906C84.9043 86.6934 84.1049 87.4929 84.1049 88.4791C84.1049 89.4652 84.9044 90.2648 85.8906 90.2648H107.167C108.153 90.2648 108.953 89.4652 108.953 88.4791C108.953 87.4929 108.153 86.6934 107.167 86.6934Z" fill="#444444"/>
<path d="M98.977 94.0374H85.8903C84.9041 94.0374 84.1046 94.8369 84.1046 95.8231C84.1046 96.8093 84.9042 97.6088 85.8903 97.6088H98.9769C99.9632 97.6088 100.763 96.8092 100.763 95.8231C100.763 94.8369 99.9633 94.0374 98.977 94.0374Z" fill="#444444"/>
</g>
<defs>
<clipPath id="clip0">
<rect width="60" height="60" fill="white" transform="translate(63 63)"/>
</clipPath>
</defs>
</svg>
