<svg width="186" height="186" viewBox="0 0 186 186" fill="none" xmlns="http://www.w3.org/2000/svg">
<circle cx="93" cy="93" r="92.25" stroke="#0B426A" stroke-width="1.5" stroke-dasharray="6 6"/>
<path d="M115.969 76.125C112.085 76.125 108.938 79.2712 108.938 83.1562V85.5H100.463C103.287 80.6706 104.719 77.0488 104.719 74.7188C104.719 68.257 99.4618 63 93 63C86.5382 63 81.2812 68.257 81.2812 74.7188C81.2812 77.0488 82.7127 80.6711 85.5366 85.5C84.5854 85.5 77.8851 85.5 77.0625 85.5V83.1562C77.0625 79.279 73.9085 76.125 70.0312 76.125C66.1471 76.125 63 79.2712 63 83.1562V89.7188C63 90.366 63.5246 90.8906 64.1719 90.8906C64.8192 90.8906 65.3438 90.366 65.3438 89.7188V83.1562C65.3438 80.5671 67.4417 78.4688 70.0312 78.4688C72.6158 78.4688 74.7188 80.5717 74.7188 83.1562V110.732C73.4741 109.617 71.8303 108.938 70.0312 108.938C68.2318 108.938 66.5889 109.618 65.3438 110.734V99.0938C65.3438 98.4465 64.8192 97.9219 64.1719 97.9219C63.5246 97.9219 63 98.4465 63 99.0938V115.969C63 119.989 66.4708 123 70.3654 123H115.969C119.846 123 123 119.846 123 115.969V83.1562C123 79.279 119.846 76.125 115.969 76.125ZM111.281 83.1562C111.281 80.5671 113.379 78.4688 115.969 78.4688C118.553 78.4688 120.656 80.5717 120.656 83.1562V110.7C119.851 109.983 118.881 109.449 117.823 109.176C115.474 108.569 113.057 109.141 111.281 110.727C111.281 109.725 111.281 84.563 111.281 83.1562ZM108.938 99.5625H93.9375C90.0103 95.823 82.5099 88.6792 81.6333 87.8438H86.9571C89.5155 91.9307 92.0355 95.3076 92.0616 95.3428C92.2831 95.6385 92.6306 95.8125 93 95.8125C93.3694 95.8125 93.7169 95.6385 93.9384 95.3428C93.9645 95.3076 96.485 91.9307 99.0429 87.8438H108.938V99.5625ZM93 65.3438C98.1695 65.3438 102.375 69.5492 102.375 74.7188C102.375 79.0698 95.5113 89.1314 93 92.6471C90.4493 89.0756 83.625 79.03 83.625 74.7188C83.625 69.5492 87.8305 65.3438 93 65.3438ZM65.3438 115.969C65.3438 113.384 67.4467 111.281 70.0312 111.281C72.6158 111.281 74.7188 113.384 74.7188 115.969C74.7188 116.616 75.2433 117.141 75.8906 117.141C76.5379 117.141 77.0625 116.616 77.0625 115.969V96.4373L88.957 107.766L75.4219 120.656H70.3654C67.7374 120.656 65.3438 118.692 65.3438 115.969ZM91.4642 108.614C91.6967 108.393 91.8281 108.086 91.8281 107.766C91.8281 107.445 91.6967 107.138 91.4642 106.917L77.0625 93.201V87.8438H78.2344C78.3145 87.9202 92.1023 101.052 92.6608 101.583C92.8787 101.79 93.168 101.906 93.4688 101.906H108.938V106.594H100.031C99.7204 106.594 99.4224 106.717 99.2027 106.937L85.4831 120.656H78.8203L91.4642 108.614ZM115.969 120.656H88.7982L100.517 108.938H108.938V115.969C108.938 116.616 109.462 117.141 110.109 117.141C110.757 117.141 111.281 116.616 111.281 115.969C111.281 112.938 114.119 110.64 117.237 111.446C119.14 111.937 120.656 113.695 120.656 115.969C120.656 118.553 118.553 120.656 115.969 120.656Z" fill="black"/>
<path d="M93 80.5781C96.2309 80.5781 98.8594 77.9496 98.8594 74.7188C98.8594 71.4879 96.2309 68.8594 93 68.8594C89.7691 68.8594 87.1406 71.4879 87.1406 74.7188C87.1406 77.9496 89.7691 80.5781 93 80.5781ZM93 71.2031C94.9386 71.2031 96.5156 72.7801 96.5156 74.7188C96.5156 76.6574 94.9386 78.2344 93 78.2344C91.0614 78.2344 89.4844 76.6574 89.4844 74.7188C89.4844 72.7801 91.0614 71.2031 93 71.2031Z" fill="black"/>
<path d="M64.1719 95.5781C64.8187 95.5781 65.3438 95.0531 65.3438 94.4062C65.3438 93.7594 64.8187 93.2344 64.1719 93.2344C63.5251 93.2344 63 93.7594 63 94.4062C63 95.0531 63.5251 95.5781 64.1719 95.5781Z" fill="black"/>
</svg>
