<svg width="58" height="40" viewBox="0 0 58 40" fill="none" xmlns="http://www.w3.org/2000/svg">
<path d="M14.0672 40C10.7488 40 8.04353 39.2831 5.95149 37.8495C3.93159 36.4158 2.41667 34.5878 1.40672 32.3656C0.468906 30.0717 0 27.6344 0 25.0538C0 21.1828 0.865672 17.5627 2.59702 14.1935C4.4005 10.7527 6.63682 7.81362 9.30597 5.37634C11.9751 2.86739 14.6082 1.07527 17.2052 0L26.6194 6.34409C23.6617 7.77778 20.8483 9.53405 18.1791 11.6129C15.51 13.6201 13.5261 15.7348 12.2276 17.957L12.7687 18.3871C13.2736 18.1004 13.8507 17.8853 14.5 17.7419C15.1493 17.5269 15.9789 17.4194 16.9888 17.4194C18.5759 17.4194 20.1629 17.8136 21.75 18.6022C23.3371 19.319 24.6716 20.4301 25.7537 21.9355C26.8358 23.4409 27.3769 25.3405 27.3769 27.6344C27.3769 30.5735 26.7276 32.9391 25.4291 34.7312C24.2027 36.5233 22.5435 37.8495 20.4515 38.7097C18.4316 39.5699 16.3035 40 14.0672 40ZM44.6903 40C41.3719 40 38.6667 39.2831 36.5746 37.8495C34.5547 36.4158 33.0398 34.5878 32.0299 32.3656C31.092 30.0717 30.6231 27.6344 30.6231 25.0538C30.6231 21.1828 31.4888 17.5627 33.2201 14.1935C35.0236 10.7527 37.26 7.81362 39.9291 5.37634C42.5983 2.86739 45.2313 1.07527 47.8284 0L57.2425 6.34409C54.2848 7.77778 51.4714 9.53405 48.8022 11.6129C46.1331 13.6201 44.1493 15.7348 42.8507 17.957L43.3918 18.3871C43.8968 18.1004 44.4739 17.8853 45.1231 17.7419C45.7724 17.5269 46.602 17.4194 47.6119 17.4194C49.199 17.4194 50.7861 17.8136 52.3731 18.6022C53.9602 19.319 55.2948 20.4301 56.3769 21.9355C57.459 23.4409 58 25.3405 58 27.6344C58 30.5735 57.3507 32.9391 56.0522 34.7312C54.8259 36.5233 53.1667 37.8495 51.0746 38.7097C49.0547 39.5699 46.9266 40 44.6903 40Z" fill="#F1C018" fill-opacity="0.31"/>
</svg>
