<svg width="32" height="42" viewBox="0 0 32 42" fill="none" xmlns="http://www.w3.org/2000/svg">
<path d="M25.4573 29.7137C25.12 29.7137 24.8466 29.9889 24.8466 30.3284V37.7545C24.8466 39.4175 23.5025 40.7705 21.8505 40.7705H4.21747C2.56534 40.7705 1.22132 39.4175 1.22132 37.7545V4.24559C1.22132 2.58245 2.56543 1.22946 4.21747 1.22946H21.8504C23.5025 1.22946 24.8466 2.58245 24.8466 4.24559V8.24823C24.8466 8.58773 25.1199 8.86297 25.4572 8.86297C25.7945 8.86297 26.0679 8.58773 26.0679 8.24823V4.24559C26.068 1.90452 24.176 0 21.8505 0H4.21747C1.89199 0 0 1.90452 0 4.24559V37.7545C0 40.0955 1.89191 42 4.21747 42H21.8504C24.176 42 26.0679 40.0955 26.0679 37.7545V30.3284C26.068 29.9889 25.7945 29.7137 25.4573 29.7137Z" fill="black"/>
<path d="M23.0143 8.84232C23.3516 8.84232 23.625 8.56709 23.625 8.22759V4.24576C23.625 3.26055 22.8288 2.45911 21.8501 2.45911H19.8432C19.4808 2.45911 19.1547 2.68967 19.0315 3.0331L18.9328 3.30858C18.7915 3.70316 18.4166 3.96832 18 3.96832H12.4344C12.0971 3.96832 11.8237 4.24355 11.8237 4.58305C11.8237 4.92254 12.0971 5.19778 12.4344 5.19778H18C18.9298 5.19778 19.7664 4.60616 20.0817 3.72554L20.095 3.68857H21.8501C22.1553 3.68857 22.4036 3.93848 22.4036 4.24576V8.22767C22.4036 8.56717 22.677 8.84232 23.0143 8.84232Z" fill="black"/>
<path d="M24.1539 10.0035C22.5028 10.0035 20.9227 10.5143 19.5848 11.4807C19.3108 11.6786 19.248 12.0627 19.4446 12.3385C19.6413 12.6145 20.023 12.6775 20.2968 12.4797C21.4259 11.6641 22.7597 11.2331 24.1539 11.2331C27.8066 11.2331 30.7784 14.2247 30.7784 17.9018C30.7784 20.4165 27.3659 24.5285 24.1724 27.5383C24.1616 27.5484 24.146 27.5483 24.1354 27.5383C20.9418 24.5286 17.5293 20.4167 17.5293 17.9018C17.5293 16.5792 17.9133 15.3011 18.6397 14.2053C18.827 13.9229 18.7512 13.5412 18.4707 13.3528C18.1903 13.1642 17.811 13.2405 17.6239 13.5228C16.7631 14.8212 16.3081 16.3354 16.3081 17.9018C16.3081 19.5054 17.2991 21.5763 19.2536 24.0569C20.7571 25.9653 22.4346 27.6195 23.3007 28.4357C23.54 28.6612 23.8469 28.7739 24.154 28.7739C24.4609 28.7739 24.768 28.6612 25.0072 28.4358C25.8733 27.6194 27.5509 25.965 29.0543 24.0569C31.0088 21.5762 31.9998 19.5053 31.9998 17.9018C31.9997 13.5467 28.4801 10.0035 24.1539 10.0035Z" fill="black"/>
<path d="M28.5404 17.9019C28.5404 15.4673 26.5728 13.4866 24.1543 13.4866C21.7359 13.4866 19.7683 15.4673 19.7683 17.9019C19.7683 20.3365 21.7359 22.3172 24.1543 22.3172C26.5728 22.3172 28.5404 20.3365 28.5404 17.9019ZM20.9896 17.9019C20.9896 16.1453 22.4094 14.716 24.1543 14.716C25.8994 14.716 27.3191 16.1453 27.3191 17.9019C27.3191 19.6586 25.8993 21.0877 24.1543 21.0877C22.4093 21.0877 20.9896 19.6586 20.9896 17.9019Z" fill="black"/>
<path d="M17.2446 23.4095C17.0098 23.1658 16.6233 23.1599 16.3812 23.3964L12.0565 27.6204C11.9202 27.7535 11.8437 27.9396 11.8469 28.1307C11.8501 28.322 11.9325 28.5052 12.0729 28.6336L22.3361 38.0214C22.242 38.1942 22.0596 38.3118 21.8503 38.3118H19.6266L10.545 30.0047C10.2759 29.7583 9.86061 29.7651 9.5999 30.0201L3.66395 35.8179V32.9628L8.23829 28.4949C8.48035 28.2585 8.48613 27.8693 8.25131 27.6257C8.01641 27.382 7.6299 27.3761 7.38784 27.6126L3.66395 31.2497V4.24568C3.66395 3.9384 3.9122 3.68849 4.21745 3.68849H6.05399L6.06726 3.72554C6.38261 4.60616 7.21921 5.19778 8.14905 5.19778H9.83227C10.1695 5.19778 10.4429 4.92254 10.4429 4.58305C10.4429 4.24355 10.1695 3.96832 9.83227 3.96832H8.14905C7.73233 3.96832 7.35747 3.70324 7.21612 3.30859L7.11752 3.03318C6.99466 2.68984 6.6684 2.45911 6.30583 2.45911H4.21745C3.23877 2.45911 2.44263 3.26055 2.44263 4.24577V37.7547C2.44263 38.7399 3.23877 39.5413 4.21745 39.5413H21.8504C22.8291 39.5413 23.6252 38.7399 23.6252 37.7547V30.4005C23.6252 30.061 23.3519 29.7858 23.0146 29.7858C22.6772 29.7858 22.4039 30.061 22.4039 30.4005V36.4223L13.3127 28.1065L17.2316 24.2788C17.4737 24.0424 17.4795 23.6532 17.2446 23.4095ZM3.66379 37.7546V37.531L10.0923 31.252L17.8104 38.3118H4.21729C3.91212 38.3117 3.66379 38.0618 3.66379 37.7546Z" fill="black"/>
<path d="M14.7205 20.4504L9.25573 25.788C9.01366 26.0244 9.00788 26.4136 9.2427 26.6572C9.36247 26.7815 9.52165 26.8439 9.68099 26.8439C9.83415 26.8439 9.98754 26.7862 10.1062 26.6703L15.5709 21.3327C15.813 21.0964 15.8189 20.7071 15.584 20.4635C15.3492 20.2199 14.9626 20.2139 14.7205 20.4504Z" fill="black"/>
<path d="M9.09989 18.9455C9.43714 18.9455 9.71055 18.6702 9.71055 18.3307V15.3707C10.8752 15.0923 11.7445 14.0372 11.7445 12.7809C11.7445 11.3129 10.5581 10.1187 9.09989 10.1187C7.64163 10.1187 6.45532 11.3129 6.45532 12.7809C6.45532 14.0372 7.32458 15.0923 8.48923 15.3707V18.3307C8.48923 18.6702 8.76264 18.9455 9.09989 18.9455ZM7.67664 12.7809C7.67664 11.9908 8.31515 11.3481 9.09989 11.3481C9.88463 11.3481 10.5231 11.9908 10.5231 12.7809C10.5231 13.5709 9.88471 14.2136 9.09989 14.2136C8.31507 14.2136 7.67664 13.5709 7.67664 12.7809Z" fill="black"/>
</svg>
