<svg width="186" height="186" viewBox="0 0 186 186" fill="none" xmlns="http://www.w3.org/2000/svg">
<circle cx="93" cy="93" r="93" fill="white"/>
<circle cx="93" cy="93" r="73.25" stroke="#0B426A" stroke-width="1.5" stroke-dasharray="6 6"/>
<path d="M118.907 133.2L116.307 126.637C116.11 126.139 115.631 125.813 115.1 125.813H70.8999C70.3683 125.813 69.8907 126.139 69.693 126.637L67.0928 133.2C66.9329 133.604 66.9816 134.063 67.2235 134.423C67.4653 134.784 67.8683 135 68.2998 135H117.7C118.132 135 118.535 134.784 118.777 134.423C119.018 134.063 119.067 133.604 118.907 133.2ZM70.2201 132.375L71.7809 128.438H114.22L115.78 132.375H70.2201Z" fill="#444444"/>
<path d="M109.25 111.375H76.7499C74.2407 111.375 72.1997 113.436 72.1997 115.969C72.1997 118.502 74.2407 120.563 76.7499 120.563H109.25C111.758 120.563 113.8 118.502 113.8 115.969C113.8 113.436 111.758 111.375 109.25 111.375ZM109.25 117.938H76.7499C75.6747 117.938 74.7998 117.054 74.7998 115.969C74.7998 114.883 75.6747 114 76.7499 114H109.25C110.325 114 111.2 114.883 111.2 115.969C111.2 117.054 110.325 117.938 109.25 117.938Z" fill="#444444"/>
<path d="M109.655 118.483C109.41 118.14 109.018 117.938 108.6 117.938H77.4002C76.9824 117.938 76.5905 118.14 76.346 118.482C76.1015 118.825 76.0352 119.265 76.1674 119.665L78.7675 127.54C78.9442 128.076 79.4409 128.438 80.0007 128.438H106.001C106.56 128.438 107.057 128.076 107.234 127.541L109.834 119.666C109.966 119.265 109.899 118.825 109.655 118.483ZM105.063 125.813H80.9369L79.2032 120.563H106.797L105.063 125.813Z" fill="#444444"/>
<path d="M100.8 61.5001H85.2C84.4825 61.5001 83.9001 62.0881 83.9001 62.8125V70.6875C83.9001 71.4119 84.4825 71.9999 85.2 71.9999H100.8C101.518 71.9999 102.1 71.4119 102.1 70.6875V62.8125C102.1 62.0881 101.518 61.5001 100.8 61.5001ZM99.4999 69.3751H86.4999V64.1249H99.4999V69.3751Z" fill="#444444"/>
<path d="M93.0002 51C90.1331 51 87.8003 53.3552 87.8003 56.2499V62.8125C87.8003 63.537 88.3826 64.1249 89.1002 64.1249H96.9002C97.6178 64.1249 98.2001 63.537 98.2001 62.8125V56.2499C98.2001 53.3552 95.8673 51 93.0002 51ZM95.6 61.5001H90.4001V56.2499C90.4001 54.8022 91.5663 53.6247 93.0002 53.6247C94.4341 53.6247 95.6003 54.8022 95.6003 56.2499V61.5001H95.6Z" fill="#444444"/>
<path d="M98.197 70.6056C98.1548 69.9138 97.5861 69.3751 96.8998 69.3751H89.0998C88.4135 69.3751 87.8452 69.9138 87.8026 70.6056L85.2024 112.606C85.1803 112.968 85.3072 113.323 85.5528 113.587C85.7985 113.85 86.1416 114 86.5004 114H99.5003C99.8591 114 100.202 113.85 100.448 113.587C100.693 113.322 100.819 112.967 100.797 112.606L98.197 70.6056ZM87.8841 111.375L90.3216 71.9999H95.6788L98.1163 111.375H87.8841Z" fill="#444444"/>
</svg>
