<svg width="188" height="188" viewBox="0 0 188 188" fill="none" xmlns="http://www.w3.org/2000/svg">
<circle cx="94" cy="94" r="93.25" stroke="#0B426A" stroke-width="1.5" stroke-dasharray="6 6"/>
<path d="M96.2678 67.4427C96.1357 67.4314 96.0027 67.4477 95.8772 67.4905C95.7517 67.5333 95.6365 67.6017 95.5388 67.6913C95.4411 67.781 95.3631 67.89 95.3098 68.0113C95.2564 68.1327 95.2288 68.2638 95.2288 68.3964V74.9879C95.2287 75.2231 95.3153 75.45 95.472 75.6255C95.6286 75.8009 95.8444 75.9125 96.0781 75.9389C98.7317 76.2442 101.285 77.1335 103.554 78.5432C102.864 79.0269 102.334 79.7056 102.032 80.4922C100.281 79.4484 98.3444 78.7552 96.3291 78.4513C96.1929 78.4308 96.0538 78.44 95.9215 78.4782C95.7892 78.5164 95.6667 78.5828 95.5623 78.6727C95.458 78.7626 95.3743 78.8741 95.3171 78.9993C95.2598 79.1246 95.2302 79.2607 95.2304 79.3985V88.4022C95.2304 88.5946 95.2883 88.7826 95.3967 88.9416C95.5051 89.1006 95.6589 89.2233 95.838 89.2936C96.4874 89.5493 97.0772 89.9359 97.5708 90.4294C98.0644 90.9228 98.4511 91.5126 98.7069 92.162C98.7772 92.341 98.8998 92.4947 99.0587 92.6031C99.2176 92.7115 99.4054 92.7695 99.5977 92.7696H108.601C108.739 92.7696 108.875 92.7399 109 92.6826C109.125 92.6253 109.237 92.5416 109.326 92.4374C109.416 92.3332 109.483 92.2108 109.521 92.0786C109.559 91.9464 109.568 91.8075 109.548 91.6714C109.245 89.6559 108.552 87.7188 107.508 85.9681C108.294 85.6654 108.973 85.1354 109.457 84.4456C110.866 86.7149 111.755 89.2681 112.061 91.9219C112.088 92.1554 112.199 92.3709 112.375 92.5273C112.55 92.6837 112.777 92.7702 113.012 92.7701H119.603C119.736 92.7701 119.867 92.7426 119.988 92.6893C120.11 92.6359 120.219 92.558 120.308 92.4603C120.398 92.3626 120.467 92.2473 120.509 92.1218C120.552 91.9963 120.569 91.8632 120.557 91.7311C120.039 85.4626 117.313 79.5814 112.865 75.1339C108.418 70.6864 102.536 67.961 96.2678 67.4427ZM104.658 80.1094C105.05 79.842 105.513 79.6952 105.987 79.6872C106.543 79.6857 107.08 79.883 107.503 80.2435C107.925 80.604 108.204 81.1038 108.29 81.6524C108.376 82.201 108.262 82.7622 107.97 83.2344C107.678 83.7066 107.226 84.0586 106.697 84.2266C106.168 84.3947 105.596 84.3677 105.085 84.1506C104.574 83.9335 104.157 83.5406 103.911 83.043C103.665 82.5454 103.604 81.976 103.741 81.4379C103.878 80.8998 104.204 80.4285 104.658 80.1094ZM100.216 90.8555C99.5429 89.5325 98.4675 88.4571 97.1445 87.7843V80.5546C98.8107 80.9491 100.389 81.6495 101.8 82.6201C101.927 83.525 102.346 84.3639 102.992 85.0102C103.638 85.6565 104.477 86.075 105.381 86.2027C106.352 87.6124 107.052 89.1901 107.445 90.8555H100.216ZM113.847 90.8555C113.344 87.7118 112.099 84.7332 110.216 82.1662C110.239 81.5972 110.146 81.0296 109.943 80.4975C109.74 79.9653 109.432 79.4796 109.037 79.0694C108.642 78.6593 108.169 78.3331 107.645 78.1105C107.12 77.888 106.557 77.7736 105.987 77.7742C105.933 77.7742 105.883 77.7797 105.83 77.7819C103.264 75.8996 100.287 74.6556 97.1445 74.1528V69.4596C102.581 70.1411 107.636 72.6145 111.511 76.4891C115.385 80.3637 117.858 85.4186 118.54 90.8555H113.847Z" fill="black"/>
<path d="M128.043 90.8555H124.867C124.115 83.7605 120.952 77.1382 115.907 72.0932C110.862 67.0482 104.239 63.8855 97.1445 63.1327V59.957C97.1445 59.7032 97.0437 59.4598 96.8642 59.2803C96.6847 59.1008 96.4413 59 96.1875 59H91.8125C91.5587 59 91.3153 59.1008 91.1358 59.2803C90.9563 59.4598 90.8555 59.7032 90.8555 59.957V63.1327C83.7605 63.8855 77.1382 67.0482 72.0932 72.0932C67.0482 77.1382 63.8855 83.7605 63.1327 90.8555H59.957C59.7032 90.8555 59.4598 90.9563 59.2803 91.1358C59.1008 91.3153 59 91.5587 59 91.8125V96.1875C59 96.4413 59.1008 96.6847 59.2803 96.8642C59.4598 97.0437 59.7032 97.1445 59.957 97.1445H63.1327C63.7412 103.223 66.1466 108.982 70.042 113.688V113.724C70.0433 114.848 70.4902 115.925 71.2848 116.72C72.0793 117.514 73.1566 117.961 74.2802 117.962H74.3174C79.0219 121.856 84.7793 124.26 90.8555 124.868V128.043C90.8555 128.297 90.9563 128.54 91.1358 128.72C91.3153 128.899 91.5587 129 91.8125 129H96.1875C96.4413 129 96.6847 128.899 96.8642 128.72C97.0437 128.54 97.1445 128.297 97.1445 128.043V124.867C104.239 124.115 110.862 120.952 115.907 115.907C120.952 110.862 124.115 104.239 124.867 97.1445H128.043C128.297 97.1445 128.54 97.0437 128.72 96.8642C128.899 96.6847 129 96.4413 129 96.1875V91.8125C129 91.5587 128.899 91.3153 128.72 91.1358C128.54 90.9563 128.297 90.8555 128.043 90.8555ZM71.9538 113.722C71.9636 113.109 72.2115 112.523 72.6453 112.089C73.0791 111.655 73.6647 111.407 74.278 111.398C74.8943 111.398 75.4851 111.643 75.9209 112.079C76.3566 112.515 76.6017 113.106 76.6023 113.722C76.5925 114.335 76.3445 114.921 75.9108 115.355C75.477 115.788 74.8914 116.036 74.278 116.046C73.6618 116.045 73.0711 115.8 72.6354 115.365C72.1997 114.929 71.9546 114.338 71.9538 113.722ZM78.4873 113.241C78.3776 112.29 77.9494 111.404 77.2725 110.727C76.5956 110.051 75.7097 109.622 74.7587 109.513C71.8742 105.964 70.0389 101.681 69.4601 97.1445H74.1528C74.8416 101.325 76.8232 105.185 79.8192 108.181C82.8152 111.177 86.6748 113.158 90.8555 113.847V118.54C86.3195 117.961 82.0356 116.126 78.4873 113.241ZM127.086 95.2305H123.99C123.748 95.2303 123.515 95.3218 123.338 95.4866C123.161 95.6514 123.053 95.8773 123.036 96.1186C122.5 103.079 119.492 109.619 114.556 114.556C109.619 119.492 103.079 122.5 96.1186 123.035C95.8773 123.053 95.6516 123.161 95.4869 123.338C95.3221 123.515 95.2305 123.748 95.2305 123.99V127.086H92.7695V123.99C92.7695 123.748 92.6779 123.515 92.5131 123.338C92.3484 123.161 92.1227 123.053 91.8814 123.035C86.3272 122.643 81.0057 120.65 76.5602 117.297C77.2647 116.842 77.8212 116.191 78.1614 115.424C82.1173 118.368 86.8181 120.147 91.7321 120.558C91.8642 120.57 91.9972 120.553 92.1227 120.511C92.2482 120.468 92.3634 120.399 92.4611 120.31C92.5588 120.22 92.6368 120.111 92.6902 119.99C92.7435 119.868 92.7711 119.737 92.7712 119.605V113.012C92.7712 112.777 92.6846 112.55 92.528 112.375C92.3713 112.199 92.1556 112.088 91.9219 112.061C87.8535 111.57 84.0676 109.728 81.1699 106.83C78.2723 103.932 76.4303 100.146 75.9389 96.0781C75.9122 95.8446 75.8005 95.6292 75.6251 95.4727C75.4497 95.3163 75.2229 95.2299 74.9879 95.2299H68.397C68.2643 95.2299 68.1331 95.2574 68.0117 95.3108C67.8902 95.3641 67.7812 95.4421 67.6915 95.5398C67.6018 95.6375 67.5333 95.7527 67.4905 95.8782C67.4477 96.0038 67.4314 96.1368 67.4427 96.269C67.8546 101.183 69.633 105.883 72.5767 109.839C71.8102 110.18 71.1596 110.736 70.7042 111.441C67.3506 106.995 65.3562 101.674 64.962 96.1191C64.945 95.8781 64.8374 95.6525 64.6607 95.4876C64.4841 95.3227 64.2516 95.2308 64.0099 95.2305H60.9141V92.7695H64.0099C64.2518 92.7697 64.4848 92.6782 64.6619 92.5134C64.839 92.3486 64.9471 92.1227 64.9642 91.8814C65.4998 84.9206 68.5077 78.381 73.4443 73.4445C78.3809 68.5079 84.9206 65.5002 91.8814 64.9648C92.1227 64.9472 92.3484 64.839 92.5131 64.6619C92.6779 64.4847 92.7695 64.2518 92.7695 64.0099V60.9141H95.2305V64.0099C95.2305 64.2518 95.3221 64.4847 95.4869 64.6619C95.6516 64.839 95.8773 64.9472 96.1186 64.9648C103.079 65.5002 109.619 68.5079 114.556 73.4445C119.492 78.381 122.5 84.9206 123.036 91.8814C123.053 92.1227 123.161 92.3486 123.338 92.5134C123.515 92.6782 123.748 92.7697 123.99 92.7695H127.086V95.2305Z" fill="black"/>
<path d="M91.7321 67.4427C85.4636 67.961 79.5822 70.6865 75.1345 75.1341C70.6867 79.5817 67.9612 85.463 67.4427 91.7316C67.4314 91.8637 67.4477 91.9968 67.4905 92.1223C67.5334 92.2479 67.6018 92.3631 67.6915 92.4608C67.7812 92.5585 67.8903 92.6365 68.0117 92.6898C68.1331 92.7431 68.2643 92.7707 68.397 92.7706H74.9879C75.223 92.7707 75.4499 92.6842 75.6253 92.5276C75.8007 92.3711 75.9123 92.1555 75.9389 91.9219C76.4304 87.8535 78.2723 84.0676 81.17 81.17C84.0676 78.2723 87.8536 76.4304 91.9219 75.9389C92.1554 75.9122 92.3709 75.8005 92.5273 75.6251C92.6837 75.4497 92.7702 75.2229 92.7701 74.9879V68.3964C92.7701 68.2638 92.7425 68.1327 92.6891 68.0113C92.6357 67.89 92.5577 67.781 92.4601 67.6913C92.3624 67.6017 92.2471 67.5333 92.1217 67.4905C91.9962 67.4477 91.8632 67.4314 91.731 67.4427H91.7321ZM90.8571 74.1528C86.6762 74.8413 82.8162 76.8228 79.8199 79.8188C76.8236 82.8148 74.8417 86.6746 74.1528 90.8555H69.4601C70.1415 85.4186 72.6148 80.3637 76.4893 76.4891C80.3637 72.6145 85.4186 70.1411 90.8555 69.4596L90.8571 74.1528Z" fill="black"/>
<path d="M96.1875 109.56C96.2347 109.56 96.2819 109.556 96.3286 109.549C99.6508 109.036 102.723 107.477 105.1 105.1C107.477 102.723 109.036 99.6508 109.549 96.3286C109.57 96.1924 109.56 96.0534 109.522 95.9212C109.484 95.7889 109.417 95.6665 109.327 95.5622C109.237 95.458 109.126 95.3744 109.001 95.3171C108.875 95.2599 108.739 95.2303 108.602 95.2305H99.5978C99.4055 95.2306 99.2176 95.2886 99.0587 95.3969C98.8998 95.5053 98.7773 95.659 98.707 95.838C98.4512 96.4874 98.0644 97.0772 97.5709 97.5707C97.0773 98.0641 96.4875 98.4507 95.838 98.7064C95.6589 98.7767 95.5052 98.8994 95.3968 99.0584C95.2884 99.2174 95.2305 99.4054 95.2305 99.5978V108.602C95.2302 108.727 95.2547 108.852 95.3027 108.968C95.3507 109.085 95.4212 109.19 95.5101 109.279C95.599 109.368 95.7046 109.439 95.8208 109.487C95.9371 109.535 96.0617 109.56 96.1875 109.56ZM97.1445 100.216C98.4676 99.5429 99.543 98.4676 100.216 97.1445H107.445C106.847 99.6451 105.568 101.931 103.749 103.749C101.931 105.567 99.6451 106.847 97.1445 107.445V100.216Z" fill="black"/>
<path d="M119.603 95.2306H113.012C112.777 95.2305 112.55 95.3169 112.375 95.4732C112.2 95.6295 112.088 95.8449 112.061 96.0782C111.57 100.147 109.728 103.933 106.83 106.83C103.932 109.728 100.146 111.57 96.0781 112.061C95.8446 112.088 95.6291 112.2 95.4727 112.375C95.3162 112.55 95.2298 112.777 95.2299 113.012V119.604C95.23 119.857 95.3309 120.101 95.5103 120.28C95.6898 120.46 95.9331 120.561 96.1869 120.561C96.2137 120.561 96.2416 120.561 96.2673 120.557C102.536 120.039 108.417 117.314 112.865 112.866C117.313 108.418 120.038 102.537 120.557 96.2686C120.568 96.1364 120.552 96.0033 120.509 95.8778C120.466 95.7523 120.398 95.637 120.308 95.5393C120.218 95.4417 120.109 95.3637 119.988 95.3103C119.866 95.257 119.735 95.2295 119.602 95.2295L119.603 95.2306ZM97.1445 118.541V113.847C101.325 113.159 105.185 111.177 108.181 108.181C111.177 105.185 113.158 101.325 113.847 97.1446H118.54C117.858 102.582 115.385 107.636 111.511 111.511C107.636 115.386 102.581 117.859 97.1445 118.541Z" fill="black"/>
<path d="M92.1618 98.7064C91.5124 98.4507 90.9225 98.0641 90.4289 97.5707C89.9354 97.0772 89.5487 96.4874 89.2929 95.838C89.2226 95.659 89.1 95.5053 88.9411 95.3969C88.7822 95.2886 88.5943 95.2306 88.402 95.2305H79.3983C79.2606 95.2305 79.1247 95.2601 78.9995 95.3174C78.8744 95.3748 78.7632 95.4584 78.6733 95.5626C78.5835 95.6669 78.5172 95.7892 78.4789 95.9214C78.4406 96.0536 78.4313 96.1925 78.4516 96.3286C78.9653 99.6506 80.5235 102.723 82.9003 105.1C85.2772 107.477 88.3492 109.035 91.6712 109.549C91.7179 109.556 91.7651 109.56 91.8123 109.56C91.938 109.56 92.0626 109.535 92.1787 109.487C92.2949 109.439 92.4005 109.369 92.4894 109.28C92.5783 109.191 92.6487 109.085 92.6968 108.969C92.7448 108.853 92.7695 108.728 92.7694 108.603V99.5978C92.7694 99.4054 92.7114 99.2174 92.603 99.0584C92.4947 98.8994 92.3409 98.7767 92.1618 98.7064ZM90.8553 107.445C88.3547 106.847 86.0687 105.568 84.2505 103.749C82.4323 101.931 81.153 99.6451 80.5544 97.1445H87.784C88.4569 98.4676 89.5322 99.543 90.8553 100.216V107.445Z" fill="black"/>
<path d="M91.6715 78.4507C88.3493 78.9645 85.277 80.5228 82.8999 82.8999C80.5228 85.2769 78.9645 88.3492 78.4508 91.6714C78.4305 91.8076 78.4398 91.9466 78.4781 92.0789C78.5164 92.2111 78.5829 92.3336 78.6728 92.4378C78.7628 92.5421 78.8742 92.6257 78.9994 92.6829C79.1247 92.7402 79.2608 92.7697 79.3985 92.7696H88.4022C88.5946 92.7695 88.7824 92.7114 88.9413 92.6031C89.1002 92.4947 89.2228 92.341 89.2931 92.162C89.5489 91.5126 89.9356 90.9228 90.4292 90.4294C90.9227 89.9359 91.5126 89.5493 92.162 89.2936C92.3411 89.2233 92.4949 89.1006 92.6033 88.9416C92.7116 88.7826 92.7696 88.5946 92.7696 88.4022V79.3985C92.7697 79.2608 92.7401 79.1248 92.6828 78.9996C92.6255 78.8745 92.5419 78.7632 92.4376 78.6733C92.3334 78.5834 92.2109 78.5171 92.0787 78.4789C91.9465 78.4407 91.8076 78.4314 91.6715 78.4518V78.4507ZM90.8555 87.7842C89.5325 88.4571 88.4571 89.5324 87.7843 90.8555H80.5546C81.1533 88.3549 82.4326 86.0689 84.2507 84.2507C86.0689 82.4325 88.3549 81.1532 90.8555 80.5546V87.7842Z" fill="black"/>
</svg>
