<svg width="40" height="40" viewBox="0 0 40 40" fill="none" xmlns="http://www.w3.org/2000/svg">
<path d="M35.3125 8.75C32.7231 8.75 30.625 10.8475 30.625 13.4375V15H24.9756C26.8582 11.7804 27.8125 9.36584 27.8125 7.8125C27.8125 3.50464 24.3079 0 20 0C15.6921 0 12.1875 3.50464 12.1875 7.8125C12.1875 9.36584 13.1418 11.7807 15.0244 15C14.3903 15 9.9234 15 9.375 15V13.4375C9.375 10.8527 7.27234 8.75 4.6875 8.75C2.09808 8.75 0 10.8475 0 13.4375V17.8125C0 18.244 0.349731 18.5938 0.78125 18.5938C1.21277 18.5938 1.5625 18.244 1.5625 17.8125V13.4375C1.5625 11.7114 2.96112 10.3125 4.6875 10.3125C6.41052 10.3125 7.8125 11.7145 7.8125 13.4375V31.8216C6.98273 31.0779 5.88684 30.625 4.6875 30.625C3.48785 30.625 2.39258 31.0785 1.5625 31.8225V24.0625C1.5625 23.631 1.21277 23.2812 0.78125 23.2812C0.349731 23.2812 0 23.631 0 24.0625V35.3125C0 37.9929 2.31384 40 4.91028 40H35.3125C37.8973 40 40 37.8973 40 35.3125V13.4375C40 10.8527 37.8973 8.75 35.3125 8.75ZM32.1875 13.4375C32.1875 11.7114 33.5861 10.3125 35.3125 10.3125C37.0355 10.3125 38.4375 11.7145 38.4375 13.4375V31.8002C37.9004 31.322 37.2537 30.9662 36.5485 30.7843C34.9826 30.3793 33.3716 30.7605 32.1875 31.8179C32.1875 31.1499 32.1875 14.3753 32.1875 13.4375ZM30.625 24.375H20.625C18.0069 21.882 13.0066 17.1194 12.4222 16.5625H15.9714C17.677 19.2871 19.357 21.5384 19.3744 21.5619C19.5221 21.759 19.7537 21.875 20 21.875C20.2463 21.875 20.4779 21.759 20.6256 21.5619C20.643 21.5384 22.3233 19.2871 24.0286 16.5625H30.625V24.375ZM20 1.5625C23.4464 1.5625 26.25 4.36615 26.25 7.8125C26.25 10.7132 21.6742 17.421 20 19.7647C18.2996 17.3837 13.75 10.6866 13.75 7.8125C13.75 4.36615 16.5536 1.5625 20 1.5625ZM1.5625 35.3125C1.5625 33.5895 2.96448 32.1875 4.6875 32.1875C6.41052 32.1875 7.8125 33.5895 7.8125 35.3125C7.8125 35.744 8.16223 36.0938 8.59375 36.0938C9.02527 36.0938 9.375 35.744 9.375 35.3125V22.2916L17.3047 29.8438L8.28125 38.4375H4.91028C3.15826 38.4375 1.5625 37.128 1.5625 35.3125ZM18.9761 30.4095C19.1312 30.2618 19.2188 30.0574 19.2188 29.8438C19.2188 29.6301 19.1312 29.4254 18.9761 29.278L9.375 20.134V16.5625H10.1562C10.2097 16.6135 19.4016 25.3677 19.7739 25.722C19.9191 25.8603 20.112 25.9375 20.3125 25.9375H30.625V29.0625H24.6875C24.4803 29.0625 24.2816 29.1449 24.1351 29.2914L14.9887 38.4375H10.5469L18.9761 30.4095ZM35.3125 38.4375H17.1988L25.0113 30.625H30.625V35.3125C30.625 35.744 30.9747 36.0938 31.4062 36.0938C31.8378 36.0938 32.1875 35.744 32.1875 35.3125C32.1875 33.2919 34.0796 31.7603 36.1578 32.2971C37.4265 32.6248 38.4375 33.7964 38.4375 35.3125C38.4375 37.0355 37.0355 38.4375 35.3125 38.4375Z" fill="black"/>
<path d="M20 11.7188C22.1539 11.7188 23.9062 9.96643 23.9062 7.8125C23.9062 5.65857 22.1539 3.90625 20 3.90625C17.8461 3.90625 16.0938 5.65857 16.0938 7.8125C16.0938 9.96643 17.8461 11.7188 20 11.7188ZM20 5.46875C21.2924 5.46875 22.3438 6.52008 22.3438 7.8125C22.3438 9.10492 21.2924 10.1562 20 10.1562C18.7076 10.1562 17.6562 9.10492 17.6562 7.8125C17.6562 6.52008 18.7076 5.46875 20 5.46875Z" fill="black"/>
<path d="M0.78125 21.7188C1.21246 21.7188 1.5625 21.3687 1.5625 20.9375C1.5625 20.5063 1.21246 20.1562 0.78125 20.1562C0.350037 20.1562 0 20.5063 0 20.9375C0 21.3687 0.350037 21.7188 0.78125 21.7188Z" fill="black"/>
</svg>
