<svg width="50" height="50" viewBox="0 0 50 50" fill="none" xmlns="http://www.w3.org/2000/svg">
<g clip-path="url(#clip0)">
<path d="M9.16667 46.6667C9.41667 46.6667 9.65625 46.5521 9.8125 46.3542C10.1667 45.9167 18.3333 35.6771 18.3333 30.8333C18.3333 25.7708 14.2292 21.6667 9.16667 21.6667C4.10417 21.6667 0 25.7708 0 30.8333C0 35.6771 8.16667 45.9167 8.52083 46.3542C8.67708 46.5521 8.91667 46.6667 9.16667 46.6667ZM9.16667 23.3333C13.3021 23.3333 16.6667 26.6979 16.6667 30.8333C16.6667 34.0625 11.7396 41.1354 9.16667 44.4792C6.59375 41.1354 1.66667 34.0625 1.66667 30.8333C1.66667 26.6979 5.03125 23.3333 9.16667 23.3333Z" fill="#022239"/>
<path d="M12.4997 30C12.4997 28.1563 11.0101 26.6667 9.16634 26.6667C7.32259 26.6667 5.83301 28.1563 5.83301 30C5.83301 31.8438 7.32259 33.3334 9.16634 33.3334C11.0101 33.3334 12.4997 31.8438 12.4997 30ZM7.49967 30C7.49967 29.0834 8.24967 28.3334 9.16634 28.3334C10.083 28.3334 10.833 29.0834 10.833 30C10.833 30.9167 10.083 31.6667 9.16634 31.6667C8.24967 31.6667 7.49967 30.9167 7.49967 30Z" fill="#022239"/>
<path d="M43.3337 17.5C43.5732 17.5 43.8024 17.3958 43.9691 17.2083C44.5837 16.4896 50.0003 10.0938 50.0003 6.66667C50.0003 2.98958 47.0107 0 43.3337 0C39.6566 0 36.667 2.98958 36.667 6.66667C36.667 10.0938 42.0837 16.4896 42.6982 17.2083C42.8649 17.3958 43.0941 17.5 43.3337 17.5ZM43.3337 1.66667C46.0941 1.66667 48.3337 3.90625 48.3337 6.66667C48.3337 8.78125 45.1566 13.125 43.3337 15.3646C41.5107 13.125 38.3337 8.78125 38.3337 6.66667C38.3337 3.90625 40.5732 1.66667 43.3337 1.66667Z" fill="#022239"/>
<path d="M45.833 5.83333C45.833 4.44791 44.7184 3.33333 43.333 3.33333C41.9476 3.33333 40.833 4.44791 40.833 5.83333C40.833 7.21874 41.9476 8.33333 43.333 8.33333C44.7184 8.33333 45.833 7.21874 45.833 5.83333ZM42.4997 5.83333C42.4997 5.37499 42.8747 4.99999 43.333 4.99999C43.7913 4.99999 44.1663 5.37499 44.1663 5.83333C44.1663 6.29166 43.7913 6.66666 43.333 6.66666C42.8747 6.66666 42.4997 6.29166 42.4997 5.83333Z" fill="#022239"/>
<path d="M42.5003 20.8333H43.3337C43.792 20.8333 44.167 20.4583 44.167 20C44.167 19.5417 43.792 19.1667 43.3337 19.1667H42.5003C42.042 19.1667 41.667 19.5417 41.667 20C41.667 20.4583 42.042 20.8333 42.5003 20.8333Z" fill="#022239"/>
<path d="M31.6663 25.8333H33.3538C33.8122 25.8333 34.1872 25.4583 34.1872 25C34.1872 24.5417 33.8122 24.1667 33.3538 24.1667H31.6559C31.4372 24.1667 31.2288 24.2604 31.0726 24.4167C30.9163 24.5729 30.833 24.7812 30.833 25C30.833 25.4583 31.208 25.8333 31.6663 25.8333Z" fill="#022239"/>
<path d="M41.0107 25C41.0107 25.4583 41.3857 25.8333 41.8441 25.8333H43.542C44.0003 25.8333 44.3753 25.4583 44.3753 25C44.3753 24.5417 44.0003 24.1667 43.542 24.1667H41.8441C41.3857 24.1667 41.0107 24.5417 41.0107 25Z" fill="#022239"/>
<path d="M37.4066 20.8333H39.1045C39.5628 20.8333 39.9378 20.4583 39.9378 20C39.9378 19.5417 39.5628 19.1667 39.1045 19.1667H37.4066C36.9482 19.1667 36.5732 19.5417 36.5732 20C36.5732 20.4583 36.9482 20.8333 37.4066 20.8333Z" fill="#022239"/>
<path d="M15.1768 48.3333H13.4788C13.0205 48.3333 12.6455 48.7083 12.6455 49.1666C12.6455 49.625 13.0205 50 13.4788 50H15.1768C15.6351 50 16.0101 49.625 16.0101 49.1666C16.0101 48.7083 15.6351 48.3333 15.1768 48.3333Z" fill="#022239"/>
<path d="M29.2183 23.8541C29.2808 23.8541 29.3329 23.8437 29.3954 23.8333C29.8433 23.7395 30.135 23.302 30.0413 22.8437C30.0204 22.7291 30.01 22.6145 30.01 22.5C30.01 22.2395 30.0725 21.9791 30.1871 21.7395C30.3954 21.3333 30.2288 20.8229 29.8225 20.6145C29.4163 20.4062 28.9058 20.5729 28.6975 20.9791C28.3538 21.6562 28.2496 22.4375 28.4058 23.177C28.4892 23.5729 28.8225 23.8541 29.2183 23.8541Z" fill="#022239"/>
<path d="M36.7503 25.8333H38.4482C38.9066 25.8333 39.2816 25.4583 39.2816 25C39.2816 24.5417 38.9066 24.1667 38.4482 24.1667H36.7503C36.292 24.1667 35.917 24.5417 35.917 25C35.917 25.4583 36.292 25.8333 36.7503 25.8333Z" fill="#022239"/>
<path d="M32.3128 20.8333H34.0107C34.4691 20.8333 34.8441 20.4583 34.8441 20C34.8441 19.5417 34.4691 19.1667 34.0107 19.1667H32.3128C31.8545 19.1667 31.4795 19.5417 31.4795 20C31.4795 20.4583 31.8545 20.8333 32.3128 20.8333Z" fill="#022239"/>
<path d="M24.0726 35.3125C24.1351 35.3333 24.208 35.3333 24.2705 35.3333C24.6559 35.3333 24.9892 35.0729 25.083 34.6979C25.1872 34.2708 25.3955 33.875 25.6767 33.5312C25.8747 33.3021 25.9372 32.9896 25.833 32.6979C25.7288 32.4166 25.4892 32.2083 25.1872 32.1562C24.8851 32.1041 24.583 32.2187 24.3955 32.4583C23.9476 32.9896 23.6247 33.6146 23.458 34.2917C23.4059 34.5104 23.4372 34.7292 23.5518 34.9271C23.6768 35.125 23.8643 35.2604 24.0726 35.3125Z" fill="#022239"/>
<path d="M40.5413 48.3021C40.3643 48.323 40.1872 48.3334 39.9997 48.3334H38.9476C38.4893 48.3334 38.1143 48.7084 38.1143 49.1667C38.1143 49.625 38.4893 50 38.9476 50H39.9997C40.2497 50 40.4997 49.9792 40.7497 49.9479C41.208 49.8854 41.5309 49.4688 41.4684 49.0104C41.4059 48.5625 40.9893 48.2396 40.5413 48.3021Z" fill="#022239"/>
<path d="M41.6982 38.5833C41.1462 38.4167 40.5732 38.3333 40.0003 38.3333H39.7816C39.3232 38.3333 38.9482 38.7083 38.9482 39.1667C38.9482 39.625 39.3232 40 39.7816 40H40.0003C40.417 40 40.8232 40.0625 41.2191 40.1771C41.3024 40.1979 41.3753 40.2188 41.4587 40.2188C41.8753 40.2188 42.2191 39.9167 42.2816 39.5104C42.3441 39.0938 42.0941 38.7083 41.6982 38.5833Z" fill="#022239"/>
<path d="M39.9268 32.5C40.3851 32.5 40.7601 32.125 40.7601 31.6667C40.7601 31.2083 40.3851 30.8333 39.9268 30.8333H38.2288C37.7705 30.8333 37.3955 31.2083 37.3955 31.6667C37.3955 32.125 37.7705 32.5 38.2288 32.5H39.9268Z" fill="#022239"/>
<path d="M44.9063 45.4583C44.4896 45.2708 43.9896 45.4583 43.8021 45.8749C43.6042 46.302 43.3438 46.6979 43.0104 47.0416C42.7917 47.2604 42.7188 47.5729 42.8021 47.8541C42.8854 48.1458 43.1146 48.3645 43.4167 48.4374C43.7083 48.5103 44.0208 48.4166 44.2188 48.1874C44.6771 47.7083 45.0521 47.1562 45.3229 46.552C45.5104 46.1354 45.3229 45.6458 44.9063 45.4583Z" fill="#022239"/>
<path d="M49.2709 28.4792C49.0625 28.4167 48.8334 28.4375 48.6354 28.5417C48.4375 28.6458 48.3021 28.8229 48.2292 29.0417C48.1042 29.4479 47.8854 29.8229 47.5833 30.125C47.25 30.4479 47.25 30.9792 47.5729 31.3021C47.8959 31.625 48.4271 31.6354 48.75 31.3125C49.2604 30.8125 49.6354 30.1979 49.8334 29.5104C49.8959 29.3021 49.875 29.0729 49.7709 28.875C49.6563 28.6875 49.4792 28.5417 49.2709 28.4792Z" fill="#022239"/>
<path d="M48.3122 26.9375C48.6456 26.9375 48.9372 26.7396 49.0726 26.4479C49.2081 26.1458 49.156 25.7917 48.9268 25.5521C48.4476 25.0208 47.8539 24.625 47.1768 24.3958C46.7393 24.25 46.2706 24.4792 46.1143 24.9167C45.9581 25.3542 46.1976 25.8229 46.6351 25.9792C47.0414 26.1146 47.3956 26.3542 47.6872 26.6771C47.8539 26.8437 48.0831 26.9375 48.3122 26.9375Z" fill="#022239"/>
<path d="M36.3857 38.3333H34.6878C34.2295 38.3333 33.8545 38.7083 33.8545 39.1667C33.8545 39.625 34.2295 40 34.6878 40H36.3857C36.8441 40 37.2191 39.625 37.2191 39.1667C37.2191 38.7083 36.8441 38.3333 36.3857 38.3333Z" fill="#022239"/>
<path d="M45.0205 30.8333H43.3226C42.8643 30.8333 42.4893 31.2083 42.4893 31.6667C42.4893 32.125 42.8643 32.5 43.3226 32.5H45.0205C45.4788 32.5 45.8538 32.125 45.8538 31.6667C45.8538 31.2083 45.4788 30.8333 45.0205 30.8333Z" fill="#022239"/>
<path d="M20.2705 48.3333H18.5726C18.1143 48.3333 17.7393 48.7083 17.7393 49.1666C17.7393 49.625 18.1143 50 18.5726 50H20.2705C20.7288 50 21.1038 49.625 21.1038 49.1666C21.1038 48.7083 20.7288 48.3333 20.2705 48.3333Z" fill="#022239"/>
<path d="M44.8227 40.8958C44.5622 40.5104 44.0414 40.4167 43.6664 40.6771C43.281 40.9375 43.1872 41.4583 43.4477 41.8333C43.7185 42.2188 43.906 42.6563 44.031 43.1146C44.0935 43.4167 44.3227 43.6563 44.6143 43.7396C44.906 43.8229 45.2185 43.7396 45.4372 43.5313C45.656 43.3125 45.7289 43 45.6456 42.7083C45.4789 42.0521 45.1977 41.4375 44.8227 40.8958Z" fill="#022239"/>
<path d="M26.6254 38.0312C26.2296 37.8333 25.8858 37.5521 25.615 37.1979C25.3338 36.8333 24.8129 36.7708 24.4483 37.0521C24.0838 37.3333 24.0213 37.8542 24.3025 38.2187C24.7296 38.7708 25.2713 39.2083 25.8963 39.5208C26.3025 39.7083 26.7921 39.5417 27.0004 39.1354C27.1879 38.7396 27.0317 38.2396 26.6254 38.0312Z" fill="#022239"/>
<path d="M25.3643 48.3333H23.6663C23.208 48.3333 22.833 48.7083 22.833 49.1666C22.833 49.625 23.208 50 23.6663 50H25.3643C25.8226 50 26.1976 49.625 26.1976 49.1666C26.1976 48.7083 25.8226 48.3333 25.3643 48.3333Z" fill="#022239"/>
<path d="M35.5518 48.3333H33.8538C33.3955 48.3333 33.0205 48.7083 33.0205 49.1666C33.0205 49.625 33.3955 50 33.8538 50H35.5518C36.0101 50 36.3851 49.625 36.3851 49.1666C36.3851 48.7083 36.0101 48.3333 35.5518 48.3333Z" fill="#022239"/>
<path d="M29.7393 32.5C30.1976 32.5 30.5726 32.125 30.5726 31.6667C30.5726 31.2083 30.1976 30.8333 29.7393 30.8333H28.0413C27.583 30.8333 27.208 31.2083 27.208 31.6667C27.208 32.125 27.583 32.5 28.0413 32.5H29.7393Z" fill="#022239"/>
<path d="M34.833 32.5C35.2913 32.5 35.6663 32.125 35.6663 31.6667C35.6663 31.2083 35.2913 30.8333 34.833 30.8333H33.1351C32.6768 30.8333 32.3018 31.2083 32.3018 31.6667C32.3018 32.125 32.6768 32.5 33.1351 32.5H34.833Z" fill="#022239"/>
<path d="M31.292 38.3333H29.5941C29.1357 38.3333 28.7607 38.7083 28.7607 39.1667C28.7607 39.625 29.1357 40 29.5941 40H31.292C31.7503 40 32.1253 39.625 32.1253 39.1667C32.1253 38.7083 31.7503 38.3333 31.292 38.3333Z" fill="#022239"/>
<path d="M30.458 48.3333H28.7601C28.3018 48.3333 27.9268 48.7083 27.9268 49.1666C27.9268 49.625 28.3018 50 28.7601 50H30.458C30.9163 50 31.2913 49.625 31.2913 49.1666C31.2913 48.7083 30.9268 48.3333 30.458 48.3333Z" fill="#022239"/>
<path d="M9.99967 48.3333H9.16634C8.70801 48.3333 8.33301 48.7083 8.33301 49.1666C8.33301 49.625 8.70801 50 9.16634 50H9.99967C10.458 50 10.833 49.625 10.833 49.1666C10.833 48.7083 10.458 48.3333 9.99967 48.3333Z" fill="#022239"/>
</g>
<defs>
<clipPath id="clip0">
<rect width="50" height="50" fill="white"/>
</clipPath>
</defs>
</svg>
