<svg width="186" height="186" viewBox="0 0 186 186" fill="none" xmlns="http://www.w3.org/2000/svg">
<circle cx="93" cy="93" r="92.25" stroke="#0B426A" stroke-width="1.5" stroke-dasharray="6 6"/>
<path d="M113.429 107.523C112.867 107.523 112.411 107.982 112.411 108.547V120.924C112.411 123.696 110.171 125.951 107.417 125.951H78.0291C75.2756 125.951 73.0355 123.696 73.0355 120.924V65.076C73.0355 62.3041 75.2757 60.0491 78.0291 60.0491H107.417C110.171 60.0491 112.411 62.3041 112.411 65.076V71.7471C112.411 72.3129 112.866 72.7716 113.429 72.7716C113.991 72.7716 114.446 72.3129 114.446 71.7471V65.076C114.447 61.1742 111.293 58 107.417 58H78.0291C74.1533 58 71 61.1742 71 65.076V120.924C71 124.826 74.1532 128 78.0291 128H107.417C111.293 128 114.446 124.826 114.446 120.924V108.547C114.447 107.982 113.991 107.523 113.429 107.523Z" fill="black"/>
<path d="M109.357 72.7372C109.919 72.7372 110.375 72.2785 110.375 71.7127V65.0763C110.375 63.4343 109.048 62.0985 107.417 62.0985H104.072C103.468 62.0985 102.924 62.4828 102.719 63.0552L102.555 63.5143C102.319 64.1719 101.694 64.6139 101 64.6139H91.7239C91.1619 64.6139 90.7062 65.0726 90.7062 65.6384C90.7062 66.2042 91.1619 66.663 91.7239 66.663H101C102.55 66.663 103.944 65.6769 104.47 64.2092L104.492 64.1476H107.417C107.925 64.1476 108.339 64.5641 108.339 65.0763V71.7128C108.339 72.2786 108.795 72.7372 109.357 72.7372Z" fill="black"/>
<path d="M111.256 74.6726C108.505 74.6726 105.871 75.5239 103.641 77.1345C103.185 77.4644 103.08 78.1046 103.408 78.5643C103.735 79.0242 104.371 79.1293 104.828 78.7995C106.71 77.4403 108.933 76.7219 111.256 76.7219C117.344 76.7219 122.297 81.7079 122.297 87.8364C122.297 92.0275 116.61 98.8809 111.287 103.897C111.269 103.914 111.243 103.914 111.226 103.897C105.903 98.881 100.215 92.0279 100.215 87.8364C100.215 85.6321 100.855 83.5018 102.066 81.6755C102.378 81.2049 102.252 80.5687 101.784 80.2547C101.317 79.9405 100.685 80.0675 100.373 80.5381C98.9384 82.7021 98.1801 85.2258 98.1801 87.8364C98.1801 90.5091 99.8317 93.9606 103.089 98.0949C105.595 101.275 108.391 104.033 109.834 105.393C110.233 105.769 110.745 105.957 111.256 105.957C111.768 105.957 112.28 105.769 112.678 105.393C114.122 104.032 116.918 101.275 119.424 98.0949C122.681 93.9605 124.333 90.5089 124.333 87.8364C124.333 80.5779 118.467 74.6726 111.256 74.6726Z" fill="black"/>
<path d="M118.568 87.8366C118.568 83.7789 115.288 80.4777 111.257 80.4777C107.227 80.4777 103.947 83.7789 103.947 87.8366C103.947 91.8942 107.227 95.1953 111.257 95.1953C115.288 95.1953 118.568 91.8942 118.568 87.8366ZM105.983 87.8366C105.983 84.9088 108.349 82.5268 111.257 82.5268C114.166 82.5268 116.532 84.9088 116.532 87.8366C116.532 90.7643 114.166 93.1462 111.257 93.1462C108.349 93.1462 105.983 90.7643 105.983 87.8366Z" fill="black"/>
<path d="M99.7409 97.0159C99.3496 96.6097 98.7054 96.5999 98.3018 96.994L91.094 104.034C90.8668 104.256 90.7394 104.566 90.7447 104.885C90.75 105.203 90.8873 105.509 91.1214 105.723L108.227 121.369C108.07 121.657 107.766 121.853 107.417 121.853H103.711L88.5748 108.008C88.1263 107.597 87.4342 107.609 86.9997 108.034L77.1065 117.697V112.938L84.7304 105.492C85.1338 105.098 85.1434 104.449 84.7521 104.043C84.3606 103.637 83.7164 103.627 83.3129 104.021L77.1065 110.083V65.0761C77.1065 64.564 77.5202 64.1475 78.029 64.1475H81.0899L81.112 64.2092C81.6376 65.6769 83.0319 66.663 84.5816 66.663H87.387C87.9491 66.663 88.4048 66.2042 88.4048 65.6384C88.4048 65.0726 87.9491 64.6139 87.387 64.6139H84.5816C83.8871 64.6139 83.2623 64.1721 83.0267 63.5143L82.8624 63.0553C82.6576 62.4831 82.1139 62.0985 81.5096 62.0985H78.029C76.3978 62.0985 75.0709 63.4343 75.0709 65.0763V120.924C75.0709 122.566 76.3978 123.902 78.029 123.902H107.417C109.048 123.902 110.375 122.566 110.375 120.924V108.668C110.375 108.102 109.92 107.643 109.357 107.643C108.795 107.643 108.34 108.102 108.34 108.668V118.704L93.1877 104.844L99.7192 98.4647C100.123 98.0707 100.132 97.422 99.7409 97.0159ZM77.1062 120.924V120.552L87.8204 110.087L100.684 121.853H78.0287C77.5201 121.853 77.1062 121.436 77.1062 120.924Z" fill="black"/>
<path d="M95.5342 92.084L86.4263 100.98C86.0228 101.374 86.0132 102.023 86.4046 102.429C86.6042 102.636 86.8695 102.74 87.135 102.74C87.3903 102.74 87.646 102.644 87.8437 102.451L96.9516 93.5546C97.3551 93.1606 97.3648 92.5119 96.9733 92.1059C96.5821 91.6999 95.9378 91.6899 95.5342 92.084Z" fill="black"/>
<path d="M86.1666 89.5758C86.7287 89.5758 87.1844 89.117 87.1844 88.5512V83.6178C89.1255 83.1538 90.5743 81.3953 90.5743 79.3014C90.5743 76.8547 88.5971 74.8644 86.1666 74.8644C83.7362 74.8644 81.759 76.8547 81.759 79.3014C81.759 81.3953 83.2078 83.1538 85.1489 83.6178V88.5512C85.1489 89.117 85.6046 89.5758 86.1666 89.5758ZM83.7946 79.3014C83.7946 77.9846 84.8587 76.9135 86.1666 76.9135C87.4745 76.9135 88.5387 77.9846 88.5387 79.3014C88.5387 80.6181 87.4747 81.6893 86.1666 81.6893C84.8586 81.6893 83.7946 80.6181 83.7946 79.3014Z" fill="black"/>
</svg>
