<svg width="51" height="50" viewBox="0 0 51 50" fill="none" xmlns="http://www.w3.org/2000/svg">
<path d="M25.7503 21.6667C29.0003 21.6667 31.5837 19.0833 31.5837 15.8333C31.5837 12.5833 29.0003 10 25.7503 10C22.5003 10 19.917 12.5833 19.917 15.8333C19.917 19.0833 22.5837 21.6667 25.7503 21.6667ZM25.7503 11.6667C28.0837 11.6667 29.917 13.5 29.917 15.8333C29.917 18.1667 28.0837 20 25.7503 20C23.417 20 21.5837 18.1667 21.5837 15.8333C21.5837 13.5 23.5003 11.6667 25.7503 11.6667Z" fill="#022239"/>
<path d="M41.8333 30.8333H35.8333L38.3333 27.1667C43.1667 20.75 42.4167 10.25 36.8333 4.66667C33.9167 1.66667 29.9167 0 25.6667 0C21.4167 0 17.4167 1.66667 14.3333 4.66667C8.75 10.25 8.08333 20.75 12.8333 27.1667L15.4167 30.8333H9.16667L0 50H51L41.8333 30.8333ZM14.1667 26.1667C9.83333 20.4167 10.4167 10.9167 15.5 5.83333C18.1667 3.16667 21.8333 1.66667 25.5833 1.66667C29.3333 1.66667 33 3.16667 35.6667 5.83333C40.6667 10.8333 41.3333 20.3333 37 26.1667L25.6667 42.6667L17.4167 30.8333L14.1667 26.1667ZM10.1667 32.5H16.5L25.5833 45.6667L34.75 32.5H40.8333L48.3333 48.3333H2.66667L10.1667 32.5Z" fill="#022239"/>
</svg>
