<svg width="186" height="186" viewBox="0 0 186 186" fill="none" xmlns="http://www.w3.org/2000/svg">
<circle cx="93" cy="93" r="93" fill="white"/>
<circle cx="93" cy="93" r="73.25" stroke="#42B553" stroke-width="1.5" stroke-dasharray="6 6"/>
<path d="M123 81.8594C123 72.563 115.437 65 106.141 65C97.3356 65 90.0866 71.7853 89.3451 80.4016H66.6793V109.469H65.8341C64.8455 109.469 63.9451 109.971 63.4254 110.812C62.9058 111.653 62.8595 112.683 63.3014 113.567L65.1282 117.221C66.4997 119.964 69.2566 121.668 72.3233 121.668H108.358C111.424 121.668 114.181 119.964 115.553 117.221L117.38 113.567C117.822 112.683 117.775 111.653 117.256 110.812C116.736 109.971 115.835 109.469 114.847 109.469H114.002V96.77C119.348 93.9398 123 88.3185 123 81.8594ZM106.141 68.5205C113.496 68.5205 119.479 74.5043 119.479 81.8594C119.479 89.2144 113.496 95.1982 106.141 95.1982C98.7857 95.1982 92.8019 89.2144 92.8019 81.8594C92.8019 74.5043 98.7857 68.5205 106.141 68.5205ZM112.404 115.647C111.633 117.189 110.082 118.147 108.358 118.147H72.3233C70.5987 118.147 69.0484 117.189 68.2772 115.647L66.9488 112.99H113.732L112.404 115.647ZM110.481 109.469H70.1998V83.9222H89.4076C90.4281 92.249 97.5426 98.7188 106.141 98.7188C107.641 98.7188 109.096 98.5207 110.481 98.1512V109.469H110.481Z" fill="#444444"/>
<path d="M99.6687 85.8417L98.0449 87.4655L100.534 89.9549L102.158 88.3311C102.836 88.7497 103.584 89.0637 104.38 89.2532V91.5479H107.901V89.2532C108.697 89.0637 109.445 88.7497 110.123 88.3311L111.747 89.9549L114.236 87.4655L112.612 85.8417C113.031 85.1639 113.345 84.4157 113.535 83.6195H115.829V80.099H113.535C113.345 79.3027 113.031 78.5544 112.612 77.8767L114.236 76.2529L111.747 73.7636L110.123 75.3873C109.445 74.9687 108.697 74.6548 107.901 74.4652V72.1704H104.38V74.4651C103.584 74.6546 102.836 74.9686 102.158 75.3872L100.534 73.7634L98.0449 76.2528L99.6687 77.8766C99.2501 78.5544 98.9361 79.3026 98.7465 80.099H96.4519V83.6195H98.7465C98.9361 84.4156 99.2501 85.1639 99.6687 85.8417ZM106.141 77.7776C108.391 77.7776 110.222 79.6087 110.222 81.8591C110.222 84.1095 108.391 85.9405 106.141 85.9405C103.89 85.9405 102.059 84.1095 102.059 81.8591C102.059 79.6087 103.89 77.7776 106.141 77.7776Z" fill="#444444"/>
</svg>
