<svg width="52" height="50" viewBox="0 0 52 50" fill="none" xmlns="http://www.w3.org/2000/svg">
<path d="M30.3365 8.76854C30.3365 6.34256 28.3967 4.37915 25.9998 4.37915C23.6029 4.37915 21.6631 6.34256 21.6631 8.76854C21.6631 11.1945 23.6029 13.1579 25.9998 13.1579C28.3967 13.1579 30.3264 11.1945 30.3365 8.76854ZM23.3998 8.76854C23.3998 7.31912 24.5678 6.13696 25.9998 6.13696C27.4318 6.13696 28.5998 7.31912 28.5998 8.76854C28.5998 10.218 27.4318 11.4001 25.9998 11.4001C24.5678 11.4001 23.3998 10.2282 23.3998 8.76854Z" fill="#022239"/>
<path d="M49.4 9.65255H35.5367C35.5367 4.31743 31.2609 0 26 0C20.7391 0 16.4633 4.31743 16.4633 9.65255H2.6C1.16797 9.65255 0 10.8244 0 12.2841V47.3684C0 48.8178 1.16797 50 2.6 50H49.4C50.832 50 52 48.8178 52 47.3684V12.2841C52 10.8244 50.832 9.65255 49.4 9.65255ZM50.2633 33.3368H33.8C33.3227 33.3368 32.9367 32.9461 32.9367 32.463V27.1998C32.9367 26.7167 33.3227 26.3261 33.8 26.3261H50.2633V33.3368ZM49.4 11.4001C49.8773 11.4001 50.2633 11.7907 50.2633 12.2738V17.537H32.8148C33.9727 15.6353 34.8258 13.5691 35.3438 11.4001H49.4ZM26 1.75781C30.3062 1.76809 33.8 5.294 33.8 9.65255C33.8 14.4428 27.9703 21.7619 26 24.1057C24.0297 21.7619 18.2 14.4326 18.2 9.65255C18.2 5.294 21.6938 1.75781 26 1.75781ZM16.6562 11.4001C17.9055 17.6604 25.025 25.6579 25.3602 26.028C25.6852 26.3877 26.2336 26.4083 26.5891 26.0896C26.6094 26.0691 26.6297 26.0485 26.65 26.028C28.5086 23.9104 30.2148 21.6591 31.7484 19.2948H50.2734V24.558H33.8C32.368 24.558 31.2 25.7401 31.2 27.1896V32.4527C31.2 33.9021 32.368 35.0843 33.8 35.0843H50.2633V39.4737H27.7367C26.3047 39.4737 25.1367 40.6558 25.1367 42.1053V48.2422H20.8V33.3059C20.8 31.8565 19.632 30.6743 18.2 30.6743H1.73672V26.3158H9.53672C10.9688 26.3158 12.1367 25.1336 12.1367 23.6842V11.4001H16.6562ZM2.6 11.4001H10.4V23.6842C10.4 24.1674 10.0141 24.558 9.53672 24.558H1.73672V12.2841C1.73672 11.801 2.12266 11.4001 2.6 11.4001ZM1.73672 47.3684V32.4322H18.2C18.6773 32.4322 19.0633 32.8228 19.0633 33.3059V48.2422H2.6C2.12266 48.2422 1.73672 47.8516 1.73672 47.3684ZM49.4 48.2422H26.8633V42.1053C26.8633 41.6221 27.2492 41.2315 27.7266 41.2315H50.2633V47.3684C50.2633 47.8516 49.8773 48.2422 49.4 48.2422Z" fill="#022239"/>
</svg>
