<svg width="186" height="186" viewBox="0 0 186 186" fill="none" xmlns="http://www.w3.org/2000/svg">
<circle cx="93" cy="93" r="93" fill="white"/>
<circle cx="93" cy="93" r="73.25" stroke="#0B426A" stroke-width="1.5" stroke-dasharray="6 6"/>
<g clip-path="url(#clip0)">
<path d="M92.7665 126.456C90.3281 126.456 87.8909 125.965 85.6339 124.983L74.8415 120.291C70.9371 118.593 66.8088 117.517 62.5715 117.094L59.0273 116.739C58.4438 116.681 58 116.19 58 115.604V104.487C58 104.24 58.0803 104 58.2284 103.803C58.4934 103.448 64.8455 95.15 74.5485 97.3092C80.0057 98.5219 84.3996 100.791 87.1246 102.482C89.1029 103.709 91.422 104.357 93.8311 104.357H104.623C106.484 104.357 108.119 105.341 109.033 106.818L118.328 96.1089C120.13 93.7024 123.078 92.2286 126.165 92.2286H126.859C127.245 92.2286 127.604 92.4231 127.814 92.7455C128.025 93.0679 128.058 93.4759 127.904 93.8283L119.497 112.934C117.659 117.113 113.917 120.269 109.487 121.377L108.008 121.746L99.4038 125.188C97.2864 126.034 95.0262 126.456 92.7665 126.456ZM60.2818 114.572L62.7986 114.824C67.2716 115.271 71.6296 116.407 75.752 118.199L86.5437 122.891C90.3385 124.541 94.7148 124.606 98.5573 123.068L107.232 119.599C107.28 119.58 107.329 119.564 107.379 119.552L108.933 119.163C112.684 118.225 115.853 115.553 117.408 112.015L125.076 94.5887C123.113 94.8779 121.306 95.9359 120.103 97.5402L109.806 109.408C109.807 109.452 109.808 109.496 109.808 109.541C109.808 112.399 107.482 114.724 104.624 114.724H89.5664C87.6089 114.724 85.6743 115.038 83.8174 115.657L83.3984 114.593L83.044 113.509L83.1021 113.49C85.1861 112.796 87.3629 112.443 89.5664 112.443H104.624C106.224 112.443 107.527 111.14 107.527 109.54C107.527 107.94 106.224 106.638 104.624 106.638H93.8317C90.9971 106.638 88.2623 105.871 85.923 104.42C83.3488 102.822 79.1989 100.68 74.055 99.5355C66.707 97.9057 61.4195 103.545 60.2825 104.89V114.572H60.2818Z" fill="#444444"/>
<path d="M102.925 91.9707C101.171 91.9707 99.2036 91.429 97.0379 90.3461C96.7755 90.2143 96.5732 89.9858 96.474 89.7098C96.3859 89.4624 94.3475 83.5992 97.5868 79.2633C99.9411 76.1115 104.368 74.6919 110.751 75.0476C111.333 75.0796 111.797 75.5462 111.826 76.1297C111.849 76.5827 112.319 87.2745 106.868 90.8343C105.708 91.5921 104.391 91.9707 102.925 91.9707ZM98.4928 88.5153C101.489 89.9206 103.885 90.0583 105.621 88.9246C108.854 86.8131 109.553 80.5452 109.57 77.2831C104.568 77.161 101.163 78.2882 99.4144 80.6281C97.3336 83.4145 98.1423 87.2471 98.4928 88.5153Z" fill="#444444"/>
<path d="M85.4798 77.0246C83.457 77.0246 81.1237 76.5912 79.0872 75.0998C75.6332 72.5686 74.0458 67.7498 74.3682 60.7777C74.3957 60.1948 74.8578 59.7262 75.4406 59.6916C75.9341 59.6635 87.6134 59.0402 91.5433 64.9392C93.3735 67.6851 93.2233 71.2815 91.0988 75.6304C90.9696 75.8948 90.7437 76.099 90.4677 76.2002C90.3143 76.257 88.1728 77.0246 85.4798 77.0246ZM90.0741 75.1298H90.0852H90.0741ZM76.6135 61.9362C76.515 67.5207 77.7988 71.3272 80.4351 73.2592C83.5915 75.5717 87.9013 74.5887 89.2563 74.1938C90.8064 70.8298 90.9376 68.144 89.6453 66.2042C87.2433 62.5987 80.1994 61.8938 76.6135 61.9362Z" fill="#444444"/>
<path d="M94.3886 106.237C94.3527 106.237 94.3168 106.235 94.2802 106.231C93.6726 106.174 93.2176 105.649 93.2483 105.038C93.3155 103.696 93.4304 102.424 93.5864 101.217C94.0609 93.1449 93.8162 74.346 81.9306 69.1453C81.3536 68.8927 81.0899 68.2204 81.3425 67.6428C81.5944 67.0664 82.2687 66.8034 82.845 67.0553C89.8491 70.1198 94.2554 77.7491 95.585 89.1184C95.7044 90.1373 95.7938 91.1418 95.8604 92.1202C98.9907 84.2102 103.78 81.4153 104.065 81.2554C104.613 80.9454 105.309 81.1425 105.618 81.6901C105.926 82.2384 105.732 82.9322 105.186 83.2416C105.065 83.3121 97.7219 87.7191 95.8787 101.31C95.7384 103.634 95.536 105.117 95.5171 105.252C95.4381 105.822 94.9519 106.237 94.3886 106.237Z" fill="#444444"/>
</g>
<defs>
<clipPath id="clip0">
<rect width="70" height="70" fill="white" transform="translate(58 58)"/>
</clipPath>
</defs>
</svg>
