<svg width="186" height="186" viewBox="0 0 186 186" fill="none" xmlns="http://www.w3.org/2000/svg">
<circle cx="93" cy="93" r="93" fill="white"/>
<circle cx="93" cy="93" r="73.25" stroke="#42B553" stroke-width="1.5" stroke-dasharray="6 6"/>
<path d="M100.324 70H97.3945V72.9297H86.2547C85.2399 71.1801 83.3476 70 81.1836 70C77.9527 70 75.3242 72.6285 75.3242 75.8594C75.3242 79.0902 77.9527 81.7188 81.1836 81.7188C84.4145 81.7188 87.043 79.0902 87.043 75.8594H115.07V99.2969H88.5078V90.5078H100.324V81.7188H75.3242C71.2856 81.7188 68 85.0044 68 89.043V102.227H73.8594V116.875H88.5078V102.227H96.6957L91.6398 114.866L94.36 115.954L98.8594 104.706L103.359 115.954L106.079 114.866L101.023 102.227H118V72.9297H100.324V70ZM81.1836 78.7891C79.5682 78.7891 78.2539 77.4748 78.2539 75.8594C78.2539 74.2439 79.5682 72.9297 81.1836 72.9297C82.799 72.9297 84.1133 74.2439 84.1133 75.8594C84.1133 77.4748 82.799 78.7891 81.1836 78.7891ZM85.5781 113.945H82.6484V99.2969H79.7188V113.945H76.7891C76.7891 112.522 76.7891 89.0005 76.7891 87.5781H73.8594V99.2969H70.9297V89.043C70.9297 86.6198 72.9011 84.6484 75.3242 84.6484H97.3945V87.5781H85.5781V113.945Z" fill="#444444"/>
</svg>
