<svg width="42" height="42" viewBox="0 0 42 42" fill="none" xmlns="http://www.w3.org/2000/svg">
<path d="M22.3607 5.06565C22.2815 5.05888 22.2017 5.06865 22.1264 5.09433C22.0511 5.12001 21.9819 5.16105 21.9233 5.21484C21.8647 5.26864 21.8179 5.33402 21.7859 5.40684C21.7539 5.47967 21.7373 5.55835 21.7373 5.6379V9.59279C21.7373 9.7339 21.7892 9.87007 21.8832 9.97532C21.9772 10.0806 22.1067 10.1475 22.2469 10.1634C23.8391 10.3465 25.371 10.8802 26.7323 11.7259C26.3184 12.0162 26.0004 12.4234 25.8192 12.8954C24.7688 12.2691 23.6067 11.8532 22.3975 11.6708C22.3158 11.6585 22.2324 11.664 22.153 11.687C22.0736 11.7099 22 11.7497 21.9374 11.8037C21.8749 11.8576 21.8247 11.9245 21.7903 11.9996C21.7559 12.0748 21.7382 12.1565 21.7383 12.2391V17.6414C21.7383 17.7568 21.7731 17.8696 21.8381 17.965C21.9031 18.0604 21.9954 18.134 22.1028 18.1762C22.4925 18.3296 22.8464 18.5616 23.1425 18.8577C23.4387 19.1537 23.6707 19.5076 23.8242 19.8972C23.8664 20.0046 23.9399 20.0969 24.0352 20.1619C24.1306 20.2269 24.2433 20.2617 24.3587 20.2618H29.7609C29.8435 20.2618 29.9251 20.244 30.0002 20.2096C30.0752 20.1752 30.142 20.125 30.1959 20.0625C30.2498 19.9999 30.2896 19.9265 30.3126 19.8472C30.3355 19.7679 30.3411 19.6846 30.3289 19.6029C30.1468 18.3936 29.731 17.2313 29.1047 16.1809C29.5766 15.9993 29.9837 15.6813 30.2741 15.2674C31.1197 16.629 31.6533 18.1609 31.8367 19.7532C31.8527 19.8933 31.9197 20.0226 32.0249 20.1164C32.1302 20.2103 32.2663 20.2621 32.4073 20.2621H36.3618C36.4414 20.2621 36.5201 20.2456 36.593 20.2136C36.6658 20.1816 36.7313 20.1348 36.7851 20.0762C36.8389 20.0176 36.88 19.9484 36.9057 19.8731C36.9314 19.7978 36.9412 19.718 36.9344 19.6387C36.6232 15.8776 34.9879 12.3489 32.3192 9.68037C29.6506 7.01187 26.1218 5.37664 22.3607 5.06565ZM27.3948 12.6657C27.6303 12.5052 27.9076 12.4172 28.1925 12.4124C28.5257 12.4115 28.8482 12.5299 29.1016 12.7462C29.355 12.9624 29.5226 13.2623 29.5741 13.5915C29.6256 13.9206 29.5575 14.2574 29.3822 14.5407C29.2069 14.824 28.9359 15.0352 28.6184 15.136C28.3008 15.2369 27.9577 15.2207 27.651 15.0904C27.3444 14.9601 27.0945 14.7244 26.9466 14.4258C26.7988 14.1273 26.7627 13.7857 26.8449 13.4628C26.9271 13.1399 27.1222 12.8572 27.3948 12.6657ZM24.7295 19.1133C24.3258 18.3195 23.6806 17.6743 22.8867 17.2706V12.9328C23.8865 13.1695 24.8336 13.5897 25.6801 14.1721C25.7565 14.715 26.0075 15.2184 26.3951 15.6061C26.7828 15.9939 27.286 16.245 27.8289 16.3217C28.4111 17.1675 28.831 18.1141 29.0673 19.1133H24.7295ZM32.9083 19.1133C32.6065 17.2271 31.8597 15.44 30.7299 13.8998C30.7432 13.5584 30.6874 13.2178 30.5658 12.8985C30.4443 12.5792 30.2595 12.2878 30.0225 12.0417C29.7855 11.7956 29.5013 11.5999 29.1868 11.4664C28.8723 11.3328 28.5341 11.2642 28.1925 11.2646C28.1597 11.2646 28.1298 11.2679 28.0983 11.2692C26.5587 10.1398 24.7722 9.39338 22.8867 9.09175V6.27578C26.1488 6.6847 29.1818 8.16873 31.5065 10.4935C33.8312 12.8182 35.3151 15.8512 35.7239 19.1133H32.9083Z" fill="black"/>
<path d="M41.4258 19.1133H39.5204C39.0687 14.8563 37.1711 10.8829 34.1441 7.85591C31.1171 4.8289 27.1437 2.93129 22.8867 2.47964V0.574219C22.8867 0.421926 22.8262 0.275872 22.7185 0.168185C22.6108 0.0604979 22.4648 0 22.3125 0L19.6875 0C19.5352 0 19.3892 0.0604979 19.2815 0.168185C19.1738 0.275872 19.1133 0.421926 19.1133 0.574219V2.47964C14.8563 2.93129 10.8829 4.8289 7.85591 7.85591C4.8289 10.8829 2.93129 14.8563 2.47964 19.1133H0.574219C0.421926 19.1133 0.275872 19.1738 0.168185 19.2815C0.0604979 19.3892 0 19.5352 0 19.6875L0 22.3125C0 22.4648 0.0604979 22.6108 0.168185 22.7185C0.275872 22.8262 0.421926 22.8867 0.574219 22.8867H2.47964C2.84473 26.5337 4.28794 29.9892 6.62517 32.8125V32.8345C6.62595 33.5087 6.89412 34.155 7.37085 34.6318C7.84758 35.1085 8.49394 35.3767 9.16814 35.3775H9.19045C12.0131 37.7134 15.4676 39.1558 19.1133 39.5207V41.4258C19.1133 41.5781 19.1738 41.7241 19.2815 41.8318C19.3892 41.9395 19.5352 42 19.6875 42H22.3125C22.4648 42 22.6108 41.9395 22.7185 41.8318C22.8262 41.7241 22.8867 41.5781 22.8867 41.4258V39.5204C27.1437 39.0687 31.1171 37.1711 34.1441 34.1441C37.1711 31.1171 39.0687 27.1437 39.5204 22.8867H41.4258C41.5781 22.8867 41.7241 22.8262 41.8318 22.7185C41.9395 22.6108 42 22.4648 42 22.3125V19.6875C42 19.5352 41.9395 19.3892 41.8318 19.2815C41.7241 19.1738 41.5781 19.1133 41.4258 19.1133ZM7.7723 32.8332C7.77813 32.4651 7.92693 32.1138 8.1872 31.8535C8.44747 31.5933 8.79879 31.4445 9.16683 31.4386C9.53657 31.439 9.89108 31.586 10.1525 31.8475C10.414 32.1089 10.561 32.4634 10.5614 32.8332C10.5555 33.2012 10.4067 33.5525 10.1465 33.8128C9.88619 34.0731 9.53486 34.2219 9.16683 34.2277C8.79711 34.2273 8.44266 34.0802 8.18122 33.8188C7.91979 33.5573 7.77273 33.2029 7.7723 32.8332ZM11.6924 32.5448C11.6265 31.9742 11.3697 31.4426 10.9635 31.0365C10.5574 30.6303 10.0258 30.3735 9.45525 30.3076C7.72453 28.1787 6.62337 25.6083 6.27605 22.8867H9.09169C9.50493 25.3951 10.6939 27.7109 12.4915 29.5085C14.2891 31.3061 16.6049 32.4951 19.1133 32.9083V35.724C16.3917 35.3765 13.8214 34.2754 11.6924 32.5448ZM40.8516 21.7383H38.994C38.8489 21.7382 38.7091 21.7931 38.6028 21.892C38.4966 21.9909 38.4318 22.1264 38.4215 22.2712C38.1001 26.4476 36.2954 30.3714 33.3334 33.3333C30.3714 36.2952 26.4476 38.0999 22.2712 38.4211C22.1264 38.4317 21.991 38.4966 21.8921 38.6029C21.7933 38.7092 21.7383 38.8489 21.7383 38.994V40.8516H20.2617V38.994C20.2617 38.8489 20.2067 38.7092 20.1079 38.6029C20.009 38.4966 19.8736 38.4317 19.7288 38.4211C16.3963 38.1856 13.2034 36.9897 10.5361 34.9781C10.9588 34.7051 11.2927 34.3146 11.4968 33.8546C13.8704 35.6211 16.6909 36.6881 19.6393 36.9351C19.7185 36.9418 19.7983 36.9321 19.8736 36.9064C19.9489 36.8807 20.0181 36.8397 20.0767 36.7859C20.1353 36.7321 20.1821 36.6667 20.2141 36.5939C20.2461 36.521 20.2627 36.4424 20.2627 36.3628V32.4073C20.2627 32.2662 20.2108 32.13 20.1168 32.0247C20.0228 31.9195 19.8933 31.8525 19.7531 31.8367C17.3121 31.5418 15.0406 30.4366 13.302 28.698C11.5634 26.9594 10.4582 24.6879 10.1633 22.2469C10.1473 22.1068 10.0803 21.9775 9.97506 21.8836C9.86983 21.7898 9.73374 21.7379 9.59273 21.738H5.63817C5.55859 21.7379 5.47987 21.7545 5.40701 21.7865C5.33415 21.8185 5.26873 21.8652 5.2149 21.9239C5.16107 21.9825 5.12 22.0516 5.0943 22.1269C5.0686 22.2023 5.05882 22.2821 5.06559 22.3614C5.31276 25.3095 6.37979 28.1297 8.14603 30.5032C7.68613 30.7077 7.29574 31.0418 7.02253 31.4646C5.01038 28.7972 3.81374 25.6043 3.57722 22.2715C3.56702 22.1269 3.50243 21.9915 3.39644 21.8925C3.29045 21.7936 3.15093 21.7385 3.00595 21.7383H1.14844V20.2617H3.00595C3.15111 20.2618 3.29091 20.2069 3.39717 20.108C3.50342 20.0091 3.56823 19.8736 3.57853 19.7288C3.89987 15.5524 5.7046 11.6286 8.66658 8.66668C11.6286 5.70477 15.5524 3.90011 19.7288 3.57886C19.8736 3.56833 20.009 3.50341 20.1079 3.39713C20.2067 3.29085 20.2617 3.1511 20.2617 3.00595V1.14844H21.7383V3.00595C21.7383 3.1511 21.7933 3.29085 21.8921 3.39713C21.991 3.50341 22.1264 3.56833 22.2712 3.57886C26.4476 3.90011 30.3714 5.70477 33.3334 8.66668C36.2954 11.6286 38.1001 15.5524 38.4215 19.7288C38.4318 19.8736 38.4966 20.0091 38.6028 20.108C38.7091 20.2069 38.8489 20.2618 38.994 20.2617H40.8516V21.7383Z" fill="black"/>
<path d="M19.6392 5.06565C15.8781 5.37665 12.3493 7.01192 9.68063 9.6805C7.012 12.3491 5.37665 15.8779 5.06556 19.639C5.05879 19.7183 5.06856 19.7981 5.09426 19.8734C5.11997 19.9488 5.16103 20.0179 5.21486 20.0765C5.26869 20.1351 5.33412 20.1819 5.40698 20.2139C5.47984 20.2459 5.55856 20.2624 5.63814 20.2624H9.5927C9.73376 20.2625 9.86989 20.2106 9.97513 20.1166C10.0804 20.0227 10.1474 19.8933 10.1633 19.7532C10.4582 17.3122 11.5633 15.0406 13.3019 13.302C15.0405 11.5634 17.3121 10.4583 19.7531 10.1634C19.8932 10.1474 20.0225 10.0803 20.1163 9.97512C20.2102 9.86988 20.262 9.7338 20.262 9.59279V5.6379C20.262 5.55835 20.2454 5.47967 20.2134 5.40684C20.1814 5.33402 20.1346 5.26864 20.076 5.21484C20.0174 5.16105 19.9482 5.12001 19.8729 5.09433C19.7977 5.06865 19.7178 5.05888 19.6386 5.06565H19.6392ZM19.1142 9.09175C16.6057 9.5048 14.2897 10.6937 12.4919 12.4913C10.6941 14.2889 9.50496 16.6048 9.09166 19.1133H6.27601C6.68485 15.8512 8.16881 12.8182 10.4935 10.4935C12.8182 8.16873 15.8511 6.6847 19.1133 6.27578L19.1142 9.09175Z" fill="black"/>
<path d="M22.3125 30.3358C22.3408 30.3358 22.3691 30.3338 22.3972 30.3296C24.3905 30.0213 26.2339 29.0863 27.6601 27.6601C29.0863 26.2338 30.0213 24.3905 30.3296 22.3972C30.3418 22.3154 30.3362 22.2321 30.3132 22.1527C30.2902 22.0733 30.2503 21.9999 30.1964 21.9373C30.1424 21.8748 30.0755 21.8246 30.0004 21.7903C29.9252 21.7559 29.8436 21.7382 29.7609 21.7383H24.3587C24.2433 21.7383 24.1306 21.7731 24.0352 21.8382C23.9399 21.9032 23.8664 21.9954 23.8242 22.1028C23.6707 22.4924 23.4387 22.8463 23.1425 23.1424C22.8464 23.4385 22.4925 23.6704 22.1028 23.8238C21.9954 23.866 21.9031 23.9396 21.8381 24.035C21.773 24.1304 21.7383 24.2432 21.7383 24.3587V29.7609C21.7381 29.8364 21.7528 29.9112 21.7816 29.981C21.8104 30.0508 21.8527 30.1142 21.906 30.1676C21.9594 30.221 22.0228 30.2633 22.0925 30.2922C22.1623 30.3211 22.237 30.3359 22.3125 30.3358ZM22.8867 24.7295C23.6806 24.3258 24.3258 23.6805 24.7295 22.8867H29.0673C28.7081 24.3871 27.9405 25.7587 26.8496 26.8496C25.7587 27.9405 24.3871 28.7081 22.8867 29.0673V24.7295Z" fill="black"/>
<path d="M36.3618 21.7383H32.4072C32.2663 21.7383 32.1302 21.7901 32.025 21.8839C31.9198 21.9777 31.8527 22.1069 31.8366 22.2469C31.5418 24.6879 30.4366 26.9595 28.698 28.6981C26.9594 30.4367 24.6879 31.5418 22.2468 31.8367C22.1067 31.8527 21.9775 31.9198 21.8836 32.025C21.7897 32.1302 21.7379 32.2663 21.7379 32.4073V36.3622C21.738 36.5145 21.7985 36.6605 21.9062 36.7681C22.0139 36.8758 22.1599 36.9363 22.3121 36.9364C22.3282 36.9364 22.3449 36.9364 22.3604 36.9344C26.1215 36.6234 29.6503 34.9882 32.319 32.3196C34.9876 29.651 36.623 26.1222 36.9341 22.3611C36.9408 22.2818 36.9311 22.202 36.9053 22.1267C36.8796 22.0513 36.8386 21.9822 36.7848 21.9236C36.7309 21.865 36.6655 21.8182 36.5926 21.7862C36.5198 21.7542 36.4411 21.7377 36.3615 21.7377L36.3618 21.7383ZM22.8867 35.7243V32.9084C25.3951 32.4951 27.7108 31.3061 29.5084 29.5085C31.306 27.7109 32.495 25.3951 32.9083 22.8868H35.7239C35.3151 26.1489 33.8311 29.1819 31.5064 31.5066C29.1817 33.8314 26.1488 35.3154 22.8867 35.7243Z" fill="black"/>
<path d="M19.897 23.8238C19.5074 23.6704 19.1535 23.4385 18.8573 23.1424C18.5612 22.8463 18.3292 22.4925 18.1757 22.1028C18.1335 21.9954 18.06 21.9032 17.9646 21.8382C17.8693 21.7731 17.7566 21.7383 17.6412 21.7383H12.2389C12.1564 21.7383 12.0748 21.7561 11.9997 21.7905C11.9246 21.8249 11.8579 21.875 11.804 21.9376C11.7501 22.0001 11.7103 22.0735 11.6873 22.1529C11.6644 22.2322 11.6588 22.3155 11.6709 22.3972C11.9791 24.3904 12.9141 26.2337 14.3402 27.6599C15.7663 29.0862 17.6095 30.0212 19.6027 30.3296C19.6307 30.3338 19.659 30.3359 19.6874 30.3358C19.7628 30.3359 19.8375 30.3211 19.9072 30.2923C19.9769 30.2635 20.0403 30.2212 20.0936 30.1678C20.1469 30.1145 20.1892 30.0512 20.2181 29.9814C20.2469 29.9117 20.2617 29.837 20.2616 29.7616V24.3587C20.2616 24.2432 20.2268 24.1305 20.1618 24.035C20.0968 23.9396 20.0045 23.866 19.897 23.8238ZM19.1132 29.0673C17.6128 28.7081 16.2412 27.9405 15.1503 26.8496C14.0594 25.7587 13.2918 24.3871 12.9326 22.8867H17.2704C17.6741 23.6806 18.3193 24.3258 19.1132 24.7295V29.0673Z" fill="black"/>
<path d="M19.6029 11.6704C17.6096 11.9787 15.7662 12.9137 14.3399 14.3399C12.9137 15.7662 11.9787 17.6095 11.6705 19.6028C11.6583 19.6846 11.6639 19.768 11.6869 19.8473C11.7099 19.9267 11.7497 20.0001 11.8037 20.0627C11.8577 20.1252 11.9245 20.1754 11.9997 20.2097C12.0748 20.2441 12.1565 20.2618 12.2391 20.2617H17.6413C17.7567 20.2617 17.8695 20.2269 17.9648 20.1618C18.0601 20.0968 18.1337 20.0046 18.1759 19.8972C18.3293 19.5076 18.5614 19.1537 18.8575 18.8576C19.1536 18.5615 19.5075 18.3296 19.8972 18.1762C20.0047 18.134 20.0969 18.0604 20.162 17.965C20.227 17.8696 20.2618 17.7568 20.2617 17.6413V12.2391C20.2618 12.1565 20.244 12.0749 20.2097 11.9998C20.1753 11.9247 20.1251 11.8579 20.0626 11.804C20 11.7501 19.9266 11.7103 19.8472 11.6873C19.7679 11.6644 19.6845 11.6589 19.6029 11.6711V11.6704ZM19.1133 17.2705C18.3195 17.6742 17.6743 18.3195 17.2706 19.1133H12.9328C13.292 17.6129 14.0595 16.2413 15.1504 15.1504C16.2413 14.0595 17.613 13.2919 19.1133 12.9327V17.2705Z" fill="black"/>
</svg>
